<svg width="2048" height="2048" version="1.1" xmlns="http://www.w3.org/2000/svg" desc="Created with imagetracer.js version 1.2.6" ><path fill="rgb(0,0,0)" stroke="rgb(0,0,0)" stroke-width="1" opacity="0" d="M 0 0 L 2048 0 L 2048 2048 L 0 2048 L 0 0 Z M 1013 44 L 1010 45 L 1008 58 L 1006 60 L 1002 86 L 999 92 L 997 111 L 994 117 L 991 138 L 989 140 Q 990 145 987 148 L 987 156 L 981 179 L 981 186 Q 975 199 974 218 L 971 224 L 969 244 L 966 249 L 963 264 L 963 270 L 961 272 Q 962 277 959 280 L 958 293 L 953 311 L 952 322 L 950 324 L 948 337 L 946 342 L 946 350 L 944 354 L 942 368 L 934 399 L 932 413 L 930 418 L 930 425 L 928 428 L 927 438 L 918 474 L 914 500 L 911 506 L 910 517 L 904 541 L 902 557 L 900 559 L 898 575 L 894 586 L 892 602 L 887 623 L 882 624 L 844 640 L 826 649 L 794 669 L 784 666 L 780 662 L 774 661 L 753 650 L 745 648 L 733 642 L 730 639 L 727 639 L 718 634 L 715 634 L 710 630 L 707 630 L 699 625 L 694 624 L 686 619 L 682 619 L 678 616 Q 674 617 675 614 L 670 613 L 655 605 L 652 605 L 650 602 L 640 599 L 631 594 Q 626 595 627 592 L 619 588 L 616 588 L 611 584 L 601 581 L 597 578 L 594 578 L 585 572 L 582 572 L 574 567 L 570 567 L 565 563 L 544 554 Q 541 555 542 552 L 538 552 L 529 546 L 519 543 L 511 538 L 508 538 L 490 528 L 487 528 L 479 523 L 476 523 L 466 517 L 463 517 L 460 514 L 452 512 L 447 508 L 437 505 L 420 496 L 417 496 L 409 490 L 405 490 L 397 485 L 394 485 L 388 482 Q 385 483 386 481 L 374 476 L 368 472 L 363 471 L 358 467 L 350 465 L 347 462 L 339 460 L 335 456 L 327 454 L 322 450 L 314 448 L 297 439 Q 287 437 281 432 L 278 432 L 275 429 Q 264 427 258 421 L 250 420 L 252 427 L 262 439 L 266 441 L 267 445 Q 278 454 285 468 L 288 469 Q 290 469 290 474 L 293 475 L 295 480 L 308 495 Q 307 497 310 496 L 313 502 L 316 503 L 342 536 Q 341 538 344 537 L 345 541 L 348 542 L 357 556 L 360 557 L 362 562 L 366 564 L 368 569 L 372 570 L 373 573 Q 372 576 375 575 L 391 597 L 394 598 L 418 630 L 422 632 L 436 650 Q 435 653 438 652 L 441 657 Q 440 659 443 658 L 474 698 L 478 699 L 478 702 L 484 710 L 489 713 L 492 719 Q 491 721 494 720 L 496 725 L 500 727 L 509 740 Q 508 742 511 741 L 541 779 L 545 781 L 548 788 L 559 800 L 560 803 L 563 804 L 569 812 Q 568 814 571 813 Q 573 820 579 824 Q 578 827 581 826 L 601 851 L 602 854 L 606 856 L 609 862 L 612 863 L 613 867 L 620 875 L 623 876 L 626 882 L 624 895 L 619 905 L 617 918 L 615 920 L 612 933 L 612 940 L 609 950 L 607 968 L 606 969 L 606 985 L 604 987 L 597 989 L 595 992 L 581 997 L 571 1002 L 567 1006 L 564 1006 L 554 1012 L 547 1014 L 543 1018 L 535 1021 Q 532 1020 533 1023 L 525 1025 L 519 1030 L 503 1036 L 496 1041 L 479 1048 L 472 1053 L 469 1053 L 464 1057 L 418 1080 L 411 1082 L 407 1086 L 399 1088 L 394 1092 L 387 1094 L 384 1097 L 373 1101 L 370 1104 L 323 1127 Q 320 1126 321 1129 L 313 1131 L 309 1135 Q 299 1136 294 1142 L 289 1143 L 274 1152 L 269 1153 L 259 1158 L 253 1163 L 234 1171 L 231 1174 L 211 1182 L 204 1187 L 199 1188 L 197 1191 L 189 1193 L 184 1197 L 177 1199 L 168 1205 L 158 1210 L 153 1211 L 146 1216 L 81 1248 Q 78 1249 78 1253 L 80 1254 L 125 1254 L 126 1255 L 305 1253 L 307 1251 L 375 1251 L 376 1250 L 431 1250 L 432 1249 L 561 1249 L 562 1248 L 668 1247 L 692 1283 L 722 1316 Q 724 1315 723 1318 L 729 1322 L 731 1326 L 736 1330 L 735 1342 L 734 1347 L 732 1349 L 731 1360 L 729 1366 L 729 1372 L 727 1374 L 723 1393 L 723 1399 L 721 1401 L 718 1415 L 718 1426 L 715 1431 L 712 1445 L 712 1452 L 710 1454 Q 711 1459 708 1462 L 705 1483 L 691 1543 L 690 1554 L 688 1556 L 687 1567 L 682 1584 L 679 1604 L 676 1613 L 676 1620 L 674 1624 L 673 1633 L 670 1639 L 670 1646 L 665 1666 L 663 1682 L 660 1688 L 657 1709 L 653 1719 L 651 1739 L 648 1744 L 646 1761 L 641 1776 L 641 1783 L 635 1807 L 635 1814 L 632 1820 L 629 1833 L 628 1845 L 625 1852 L 625 1861 L 624 1862 L 623 1874 L 621 1876 L 619 1884 L 618 1897 L 614 1910 Q 615 1912 619 1911 L 627 1900 Q 626 1897 629 1898 L 644 1879 Q 643 1875 646 1876 L 666 1851 L 666 1849 L 670 1846 L 680 1831 L 715 1787 Q 714 1784 717 1785 L 717 1783 L 720 1781 L 722 1778 Q 721 1775 724 1776 L 731 1765 L 760 1729 L 761 1724 L 765 1723 L 766 1720 L 770 1717 L 772 1712 L 776 1709 Q 796 1679 820 1652 L 821 1649 L 825 1646 L 826 1643 Q 825 1640 828 1641 L 834 1633 Q 833 1630 836 1631 L 839 1627 Q 838 1623 841 1624 L 843 1620 L 846 1618 L 867 1589 L 871 1586 L 879 1575 Q 878 1572 881 1573 L 884 1567 L 887 1565 L 915 1529 L 916 1526 L 926 1515 Q 925 1511 928 1512 L 964 1465 Q 963 1462 966 1463 L 967 1460 L 970 1458 L 973 1452 L 976 1450 L 981 1443 L 998 1443 L 999 1444 L 1054 1444 L 1055 1443 L 1072 1443 L 1076 1441 L 1086 1440 L 1101 1459 Q 1100 1461 1103 1460 Q 1104 1466 1109 1470 L 1114 1473 L 1114 1476 L 1121 1484 Q 1120 1486 1123 1485 L 1134 1500 Q 1133 1502 1136 1501 L 1139 1506 Q 1138 1508 1141 1507 L 1165 1538 L 1170 1541 L 1170 1544 L 1181 1556 L 1188 1565 L 1188 1567 L 1191 1568 L 1201 1581 Q 1200 1583 1203 1582 L 1211 1593 Q 1210 1595 1213 1594 L 1229 1616 L 1233 1618 L 1234 1622 L 1242 1632 L 1248 1636 L 1251 1643 L 1267 1662 L 1270 1663 L 1272 1667 Q 1271 1669 1274 1668 L 1293 1694 L 1298 1697 L 1298 1700 L 1310 1713 L 1312 1717 L 1315 1718 L 1317 1723 L 1320 1724 L 1322 1729 L 1325 1730 L 1332 1740 Q 1331 1742 1334 1741 L 1335 1745 L 1338 1746 L 1340 1750 Q 1339 1752 1342 1751 L 1344 1756 Q 1366 1778 1384 1805 L 1387 1806 L 1399 1823 L 1403 1825 L 1404 1828 Q 1403 1830 1406 1829 L 1417 1843 L 1417 1845 L 1420 1846 L 1422 1851 L 1425 1852 L 1427 1857 Q 1428 1860 1432 1859 L 1437 1868 L 1462 1896 Q 1463 1899 1468 1898 Q 1468 1890 1464 1886 L 1463 1874 L 1459 1864 L 1459 1859 L 1455 1843 L 1453 1841 L 1453 1836 L 1450 1828 L 1450 1822 L 1447 1815 L 1447 1809 L 1441 1793 L 1441 1785 L 1436 1771 L 1434 1755 L 1431 1750 Q 1431 1739 1427 1732 L 1427 1727 L 1424 1722 L 1423 1711 L 1418 1697 L 1418 1689 L 1413 1677 L 1412 1667 L 1409 1659 L 1407 1645 L 1401 1628 L 1400 1617 L 1397 1611 Q 1398 1604 1395 1601 L 1395 1594 Q 1389 1583 1388 1569 L 1386 1567 L 1383 1548 L 1378 1532 L 1374 1512 L 1371 1505 L 1371 1500 L 1369 1496 L 1369 1489 L 1364 1475 L 1360 1454 L 1357 1447 L 1357 1442 L 1353 1430 L 1352 1420 L 1349 1410 L 1347 1408 L 1347 1403 L 1342 1385 L 1341 1375 L 1338 1367 L 1338 1362 L 1336 1360 L 1332 1340 L 1330 1338 L 1330 1329 L 1327 1320 L 1330 1315 L 1334 1312 L 1346 1297 L 1349 1295 Q 1371 1269 1389 1238 L 1391 1236 L 1439 1236 L 1441 1234 L 1625 1233 L 1626 1232 L 1733 1232 L 1734 1231 L 1736 1232 L 1767 1231 L 1769 1231 L 1781 1231 L 1782 1230 L 1784 1231 L 1789 1230 L 1791 1231 Q 1801 1233 1806 1229 L 1874 1229 L 1875 1228 L 1937 1228 L 1938 1227 L 1977 1227 L 1977 1227 L 1977 1218 L 1950 1205 L 1947 1205 L 1939 1199 L 1935 1199 L 1926 1193 L 1917 1191 L 1914 1188 L 1906 1185 Q 1902 1186 1903 1184 L 1892 1179 L 1888 1176 L 1880 1174 L 1876 1170 L 1873 1170 L 1865 1165 L 1857 1163 L 1854 1160 Q 1844 1158 1839 1153 L 1829 1150 L 1817 1144 L 1814 1141 L 1810 1141 L 1802 1136 L 1799 1136 L 1790 1130 L 1784 1129 L 1763 1118 L 1760 1118 L 1757 1115 L 1747 1112 L 1739 1107 L 1736 1107 L 1727 1101 L 1719 1099 L 1707 1092 L 1704 1092 Q 1699 1087 1691 1086 L 1688 1083 L 1678 1080 L 1671 1075 L 1668 1075 L 1659 1070 L 1656 1070 L 1651 1066 Q 1642 1065 1638 1060 L 1630 1058 L 1621 1052 L 1616 1051 L 1613 1048 Q 1608 1049 1608 1046 L 1604 1046 L 1601 1043 L 1592 1040 L 1589 1037 L 1579 1034 L 1570 1029 L 1567 1029 L 1563 1025 L 1555 1023 L 1552 1020 L 1543 1018 L 1539 1014 L 1531 1012 L 1526 1008 L 1516 1005 L 1513 1002 L 1510 1002 L 1493 993 L 1490 993 L 1462 979 Q 1457 980 1458 977 L 1456 976 Q 1451 977 1452 974 L 1447 973 L 1445 972 L 1444 960 L 1442 958 L 1441 943 L 1436 926 L 1434 911 L 1431 906 L 1429 895 L 1425 887 L 1422 876 L 1424 869 L 1431 861 Q 1430 858 1433 859 L 1442 846 Q 1441 843 1444 844 L 1448 839 Q 1447 836 1450 837 L 1458 827 L 1459 823 L 1464 819 Q 1463 815 1466 816 L 1492 782 Q 1491 779 1494 780 L 1503 768 Q 1502 765 1505 766 L 1507 762 L 1531 731 L 1534 729 L 1537 723 L 1540 721 L 1542 716 L 1545 714 L 1559 696 Q 1558 692 1561 693 L 1568 685 L 1576 672 L 1579 670 L 1583 664 Q 1582 661 1585 662 L 1637 594 Q 1636 591 1639 592 L 1646 583 Q 1645 580 1648 581 L 1654 573 L 1654 571 L 1657 569 L 1676 544 Q 1675 541 1678 542 L 1681 537 L 1685 534 L 1687 529 L 1693 523 L 1693 521 L 1696 519 L 1704 507 L 1714 496 L 1728 476 L 1735 469 L 1737 464 L 1740 462 L 1744 455 L 1753 446 L 1769 424 L 1775 418 L 1781 408 L 1786 403 L 1786 399 L 1784 398 L 1758 409 L 1736 421 L 1733 421 L 1726 426 L 1721 427 L 1714 432 L 1709 433 L 1695 440 L 1692 443 L 1685 445 L 1680 449 L 1672 451 L 1658 460 L 1651 462 L 1602 488 L 1597 489 L 1581 497 L 1576 501 L 1559 508 L 1550 514 L 1535 520 L 1524 527 L 1509 533 L 1506 536 L 1492 543 L 1484 545 L 1482 548 L 1468 555 L 1463 556 L 1447 564 L 1444 567 L 1429 573 L 1424 577 L 1407 584 L 1390 594 L 1383 596 L 1371 602 L 1368 605 L 1361 607 L 1358 610 L 1349 613 L 1344 617 L 1337 619 L 1332 623 L 1325 625 L 1312 633 L 1307 634 L 1261 658 Q 1257 657 1258 660 L 1250 663 L 1204 638 L 1192 634 L 1173 625 L 1156 620 L 1154 609 L 1151 603 L 1151 597 L 1149 593 L 1148 585 L 1145 579 L 1143 563 L 1137 545 L 1137 541 L 1135 538 L 1134 528 L 1131 521 L 1131 516 L 1126 499 L 1126 494 L 1119 472 L 1117 457 L 1115 453 Q 1116 448 1113 449 L 1111 432 L 1107 423 L 1104 406 L 1102 403 L 1101 391 L 1098 381 L 1096 379 L 1094 363 L 1090 352 L 1087 333 L 1085 331 L 1083 318 L 1078 306 L 1077 292 L 1073 283 L 1070 265 L 1066 255 L 1066 250 L 1062 238 L 1061 227 L 1055 210 L 1054 199 L 1051 193 L 1049 178 L 1045 169 L 1043 154 L 1038 142 L 1038 133 L 1032 114 L 1031 104 L 1028 98 L 1025 81 L 1020 64 L 1020 59 L 1018 57 L 1016 47 L 1013 44 Z M 1062 204 L 1066 225 L 1073 227 L 1095 228 L 1106 230 L 1119 230 L 1122 232 Q 1126 231 1128 233 L 1148 235 L 1149 236 L 1157 236 L 1178 241 L 1185 241 L 1187 243 L 1208 247 L 1216 250 L 1225 251 L 1231 254 L 1235 254 L 1251 260 L 1265 263 L 1296 275 L 1305 277 L 1338 291 Q 1340 290 1339 293 L 1345 294 L 1396 319 L 1401 323 L 1407 325 L 1410 328 L 1426 336 L 1429 339 L 1438 343 L 1460 358 Q 1463 357 1462 360 L 1508 392 L 1560 436 L 1561 439 L 1565 441 L 1567 445 L 1577 452 L 1590 468 L 1593 469 L 1595 473 L 1601 476 L 1609 473 L 1619 467 L 1618 462 L 1612 458 Q 1613 455 1611 456 L 1600 444 Q 1597 445 1598 443 L 1588 433 L 1586 431 L 1582 427 L 1580 425 L 1531 382 Q 1528 383 1529 381 L 1481 344 L 1418 305 L 1363 277 L 1349 272 L 1341 267 L 1338 267 L 1328 262 L 1320 260 L 1316 257 L 1305 254 L 1294 249 L 1287 248 L 1285 246 Q 1271 244 1261 238 L 1257 238 Q 1245 233 1231 231 L 1229 229 L 1218 226 L 1208 225 L 1201 222 L 1188 221 L 1183 220 L 1181 218 L 1166 215 L 1151 214 L 1148 212 L 1137 211 L 1136 210 L 1112 209 L 1106 207 L 1062 204 Z M 947 206 L 931 209 L 907 210 L 901 212 L 896 212 L 893 214 L 867 217 L 856 221 L 843 222 L 836 225 L 826 226 L 815 229 L 813 231 L 805 232 L 790 237 L 779 239 Q 772 244 761 245 L 757 248 L 750 249 L 739 254 L 733 255 L 719 262 L 716 262 L 706 267 L 703 267 L 699 270 L 681 277 L 627 304 L 621 309 L 603 318 L 589 328 L 579 333 L 575 337 L 570 339 L 566 343 L 561 345 Q 550 355 537 362 L 535 365 L 523 373 L 491 399 L 489 402 L 488 402 L 459 428 L 457 431 L 449 438 L 445 443 L 443 444 L 440 448 L 437 450 L 424 465 L 421 467 L 407 483 L 407 485 L 426 494 L 430 492 L 443 477 Q 442 474 445 475 L 453 466 L 457 463 L 459 460 L 462 458 L 464 455 L 468 452 L 470 449 L 486 435 L 488 431 L 496 425 Q 498 426 497 423 L 558 375 L 582 358 L 595 351 L 599 347 L 647 319 L 665 311 L 672 306 L 688 300 L 706 290 L 712 289 L 738 277 L 747 275 L 778 263 L 785 262 L 808 254 L 812 254 L 818 251 L 852 244 L 858 241 L 865 241 L 886 236 L 894 236 L 916 232 L 922 232 L 924 230 L 937 230 L 938 229 L 954 228 L 956 224 L 956 219 L 959 208 L 958 206 L 947 206 Z M 1686 552 L 1674 568 L 1679 579 L 1684 584 L 1697 607 L 1701 611 L 1703 617 L 1713 632 L 1719 646 L 1723 651 L 1739 683 L 1754 718 L 1759 733 L 1761 735 L 1764 746 L 1767 750 L 1768 758 L 1772 766 L 1775 779 L 1778 784 L 1786 818 L 1789 823 L 1790 833 L 1795 850 L 1797 867 L 1801 879 L 1801 888 L 1803 895 L 1803 901 L 1807 916 L 1807 933 L 1808 934 L 1809 956 L 1811 961 L 1812 996 L 1813 997 L 1812 1058 L 1811 1059 L 1811 1073 L 1809 1076 L 1809 1086 L 1808 1087 L 1806 1127 L 1812 1131 Q 1819 1132 1824 1136 L 1826 1134 L 1827 1120 L 1829 1113 L 1831 1085 L 1832 1084 L 1832 1072 L 1833 1071 L 1833 1054 L 1834 1053 L 1834 980 L 1833 979 L 1833 962 L 1832 961 L 1832 949 L 1831 948 L 1830 929 L 1829 928 L 1829 919 L 1827 913 L 1827 906 L 1826 905 L 1825 892 L 1822 879 L 1819 856 L 1816 849 L 1815 838 L 1812 826 L 1810 824 L 1810 818 L 1807 805 L 1805 802 L 1803 790 L 1799 783 L 1798 775 L 1793 762 L 1793 758 L 1788 748 L 1787 741 Q 1782 733 1780 722 L 1777 718 Q 1775 706 1769 699 L 1768 693 L 1765 689 L 1764 684 L 1760 678 L 1752 658 L 1746 649 L 1746 646 L 1743 643 L 1740 635 L 1725 608 L 1710 583 L 1690 554 Q 1691 550 1686 552 Z M 351 557 L 322 600 L 296 647 L 291 657 L 290 662 L 279 683 L 278 688 L 273 696 L 272 702 L 268 708 L 266 717 L 263 721 L 260 732 L 256 739 L 249 761 L 249 765 L 244 775 L 243 783 L 240 789 L 238 801 L 236 804 L 232 822 L 230 826 L 227 839 L 227 844 L 225 849 L 225 855 L 223 860 L 223 865 L 219 879 L 219 886 L 214 914 L 214 921 L 213 922 L 213 936 L 212 937 L 212 948 L 211 949 L 211 961 L 210 962 L 210 978 L 208 981 L 208 1052 L 210 1055 L 210 1071 L 211 1072 L 212 1095 L 213 1096 L 213 1111 L 215 1119 L 218 1146 L 219 1147 L 219 1154 L 222 1165 L 227 1165 L 230 1162 L 239 1159 L 242 1155 L 239 1128 L 237 1124 L 236 1110 L 235 1109 L 235 1096 L 233 1085 L 233 1074 L 231 1071 L 230 1034 L 229 1033 L 230 976 L 231 975 L 231 962 L 233 959 L 234 938 L 235 937 L 235 923 L 240 898 L 241 880 L 244 872 L 247 851 L 252 836 L 253 826 L 258 810 L 258 806 L 263 794 L 264 786 Q 269 778 270 766 L 273 762 L 276 750 L 281 739 L 281 735 L 285 729 L 287 721 L 292 712 L 298 695 L 323 644 L 348 602 Q 347 598 350 599 L 364 576 Q 365 571 362 570 Q 363 567 361 568 Q 358 568 358 564 L 355 561 L 353 559 L 351 557 Z M 1785 1243 L 1780 1244 L 1773 1260 L 1772 1267 L 1768 1275 L 1767 1283 L 1764 1287 L 1761 1298 L 1756 1307 L 1755 1313 L 1733 1362 L 1715 1395 L 1713 1401 L 1708 1407 L 1707 1411 L 1697 1426 L 1696 1430 L 1692 1434 L 1689 1441 L 1661 1482 Q 1631 1523 1596 1560 L 1554 1601 Q 1551 1600 1552 1603 L 1542 1611 L 1538 1616 L 1530 1621 L 1527 1625 L 1473 1666 L 1429 1693 L 1430 1702 L 1432 1704 L 1433 1714 L 1436 1715 L 1445 1711 L 1472 1694 L 1483 1685 L 1488 1683 L 1544 1640 L 1546 1636 L 1550 1635 L 1557 1629 L 1558 1627 L 1563 1623 Q 1565 1624 1564 1622 L 1585 1603 L 1608 1579 L 1614 1574 L 1631 1554 L 1634 1552 L 1636 1549 Q 1635 1546 1638 1547 L 1663 1517 L 1686 1486 L 1704 1457 L 1710 1450 L 1739 1400 L 1748 1380 L 1752 1375 L 1760 1355 L 1764 1349 Q 1765 1341 1769 1337 L 1769 1334 L 1774 1326 L 1777 1315 L 1781 1308 L 1782 1301 L 1785 1297 L 1788 1285 L 1791 1281 L 1793 1271 L 1798 1258 L 1799 1250 L 1801 1248 Q 1801 1243 1801 1243 L 1785 1243 Z M 247 1263 Q 246 1266 249 1268 L 250 1276 L 254 1284 L 256 1294 L 260 1301 L 263 1312 L 266 1316 L 268 1325 L 272 1331 L 273 1337 L 278 1345 L 285 1364 L 290 1371 L 297 1388 L 300 1391 L 310 1412 L 335 1454 L 362 1494 L 384 1521 L 385 1524 L 388 1525 L 389 1529 L 402 1544 Q 401 1546 404 1545 L 436 1582 L 439 1583 L 441 1587 L 446 1590 L 447 1593 L 451 1595 L 453 1599 L 471 1614 L 472 1617 L 482 1624 L 484 1628 L 495 1635 L 496 1638 L 536 1669 L 573 1695 L 602 1712 L 608 1717 L 639 1733 L 640 1732 L 643 1719 L 643 1710 L 641 1710 Q 628 1700 612 1693 L 572 1667 L 539 1643 L 506 1616 L 503 1612 L 499 1610 L 497 1608 L 489 1600 Q 486 1601 487 1598 L 486 1598 L 462 1576 L 460 1573 L 456 1569 L 429 1541 Q 430 1538 428 1539 L 397 1501 L 393 1498 L 392 1495 L 384 1485 Q 385 1482 382 1483 L 381 1480 L 347 1431 L 322 1387 L 304 1351 L 303 1346 L 293 1326 L 290 1316 L 287 1312 L 284 1302 L 281 1298 L 279 1288 L 276 1283 L 273 1271 L 270 1265 L 269 1263 L 247 1263 Z M 1319 1749 L 1302 1756 L 1296 1757 L 1287 1762 L 1283 1762 Q 1275 1767 1264 1768 L 1253 1773 L 1249 1773 Q 1238 1779 1223 1780 L 1221 1782 L 1209 1785 L 1200 1786 L 1193 1789 L 1176 1791 L 1172 1793 L 1167 1793 L 1156 1796 L 1142 1797 L 1138 1799 L 1119 1801 L 1118 1802 L 1106 1802 L 1105 1803 L 1095 1803 L 1094 1804 L 1084 1804 L 1083 1805 L 1070 1805 L 1069 1806 L 1052 1806 L 1051 1807 L 992 1807 L 991 1806 L 974 1806 L 973 1805 L 938 1803 L 937 1802 L 925 1802 L 918 1800 L 905 1799 L 902 1797 L 888 1796 L 862 1790 L 850 1789 L 840 1785 L 834 1785 L 820 1780 L 804 1777 L 798 1774 L 790 1773 L 782 1769 L 753 1760 L 748 1760 L 735 1776 L 736 1778 L 761 1787 L 774 1791 L 778 1791 L 783 1794 L 797 1797 L 803 1800 L 845 1809 L 852 1812 L 858 1812 L 878 1817 L 907 1820 L 909 1822 L 923 1823 L 924 1824 L 938 1824 L 949 1826 L 960 1826 L 964 1828 L 1005 1829 L 1006 1830 L 1038 1830 L 1039 1829 L 1079 1828 L 1083 1826 L 1128 1823 L 1136 1820 L 1166 1817 L 1186 1812 L 1192 1812 L 1207 1807 L 1237 1801 L 1243 1798 L 1273 1790 L 1304 1778 L 1318 1774 L 1333 1767 L 1334 1767 L 1334 1762 L 1330 1761 L 1329 1757 L 1324 1750 L 1319 1749 Z " /><path fill="rgb(0,0,0)" stroke="rgb(0,0,0)" stroke-width="1" opacity="0" d="M 1013.5 130 L 1016 136.5 L 1016 141.5 L 1020 151.5 L 1020 156.5 L 1027 181.5 L 1028 191.5 L 1033 205.5 L 1033 210.5 L 1036 216.5 L 1037 227.5 L 1044 251.5 L 1045 260.5 L 1050 274.5 L 1053 294.5 L 1058 307.5 L 1060 321.5 L 1063 328.5 Q 1063 339.5 1067 346.5 L 1067 351.5 L 1069 353.5 L 1069 358.5 L 1073 372.5 L 1075 374.5 L 1077 392.5 L 1080 398.5 Q 1080.2 408.8 1084 415.5 L 1084 420.5 L 1087 425.5 L 1087 431.5 L 1092 446.5 L 1092 454.5 L 1098 470.5 L 1098 476.5 Q 1101 479.5 1100 486.5 L 1103 491.5 L 1105 507.5 L 1109 515.5 L 1110 527.5 L 1116 542.5 L 1117 554.5 Q 1121.4 565.6 1123 579.5 L 1125 581.5 L 1127 596.5 L 1132 613 L 1113.5 608 L 1099.5 607 L 1093.5 605 L 1087.5 605 L 1084.5 603 L 1070.5 602 L 1069.5 601 L 1005.5 600 L 1004.5 601 L 982.5 601 L 981.5 602 L 966.5 603 L 963.5 605 L 937.5 608 L 929.5 611 L 912.5 614 L 910.5 616 L 910 613.5 L 912 604.5 L 914 601.5 L 923 551.5 L 926 545.5 L 926 538.5 L 932 514.5 L 933 502.5 L 936 496.5 L 939 475.5 L 943 465.5 L 945 445.5 L 948 440.5 L 950 423.5 L 953 417.5 Q 952.4 411.4 955 408.5 L 955 401.5 L 961 377.5 L 961 370.5 L 964 364.5 L 967 351.5 L 968 339.5 L 971 333.5 L 972 317.5 L 975 311.5 L 978 298.5 L 979 287.5 L 983 276.5 L 984 263.5 L 989 246.5 L 990 234.5 L 993 228.5 Q 992.9 219.9 996 214.5 L 996 207.5 L 999 198.5 L 1000 189.5 L 1011 143.5 L 1012 132.5 L 1013.5 130 Z M 1013 197 L 1008 199 Q 1002 202 1000 210 L 1000 214 L 1003 221 L 1012 227 L 1019 227 L 1026 223 L 1030 217 Q 1031 208 1028 204 Q 1024 196 1013 197 Z " /><path fill="rgb(0,0,0)" stroke="rgb(0,0,0)" stroke-width="1" opacity="0" d="M 1710.5 458 Q 1712.8 457.3 1712 459.5 L 1692.5 485 Q 1690.3 484.3 1691 486.5 L 1687 493 Q 1684.3 491.9 1685 494.5 L 1681.5 499 Q 1679.3 498.3 1680 500.5 L 1678 504 Q 1675.3 502.9 1676 505.5 L 1667 516.5 L 1666 520 L 1662 522.5 L 1659.5 528 L 1657 529.5 L 1644 549 L 1640 551.5 L 1637.5 556 L 1635 557.5 L 1607.5 595 L 1605 596.5 L 1575.5 636 Q 1573.3 635.3 1574 637.5 L 1565.5 649 L 1563 650.5 L 1562 653.5 L 1550 667.5 L 1549 672 L 1544 675.5 L 1524.5 702 L 1522 703.5 L 1522 705.5 L 1509 720.5 L 1470.5 772 L 1468 773.5 L 1466 779 L 1462 781.5 L 1450 797.5 L 1449 801 L 1446 802.5 L 1441.5 809 Q 1439.3 808.3 1440 810.5 L 1413.5 846 L 1410 847 L 1394 813.5 L 1381 792.5 L 1369 776.5 L 1369 774.5 L 1349.5 750 L 1347 748.5 L 1339 737 L 1335 734.5 L 1331.5 730 Q 1329.3 730.8 1330 728.5 L 1319.5 718 L 1318 718 L 1315.5 714 L 1311 710.5 L 1309.5 708 L 1297 699 Q 1298.1 696.3 1295.5 697 L 1290 692.5 Q 1290.8 690.3 1288.5 691 L 1272 679 L 1273.5 676 L 1280.5 674 L 1294 666.5 Q 1293.2 663.9 1296.5 665 L 1317 655.5 Q 1316.3 653.3 1318.5 654 L 1350.5 639 L 1355.5 635 L 1381 624 Q 1379.8 621 1383.5 622 L 1404.5 612 L 1407.5 609 L 1422.5 603 L 1429.5 598 L 1451.5 587 L 1470.5 579 L 1487.5 569 L 1492.5 568 L 1495.5 565 L 1502.5 563 L 1509.5 558 L 1529 550 L 1530.5 547 L 1533.5 547 L 1541.5 542 L 1548.5 540 L 1565.5 530 L 1578.5 525 L 1587.5 519 L 1602.5 513 L 1607.5 509 L 1640.5 494 L 1643.5 491 L 1656.5 486 L 1666.5 481 L 1669.5 478 L 1680.5 474 Q 1683.4 469.4 1690.5 469 L 1696.5 464 Q 1705.4 462.9 1710.5 458 Z M 1643 497 L 1638 499 Q 1632 502 1630 510 Q 1629 518 1633 522 L 1638 526 L 1645 528 L 1654 525 Q 1658 522 1660 516 L 1660 510 L 1658 504 L 1649 497 L 1643 497 Z " /><path fill="rgb(0,0,0)" stroke="rgb(0,0,0)" stroke-width="1" opacity="0" d="M 326.5 479 L 331.5 480 L 341.5 486 L 348.5 488 L 351.5 491 L 355.5 491 L 358.5 494 L 361.5 494 L 364.5 497 L 367.5 497 L 375.5 502 L 381.5 503 L 384.5 506 L 393.5 509 L 397.5 512 L 400.5 512 L 408.5 517 L 413 517 L 414.5 520 L 424.5 523 L 427.5 526 L 437.5 529 L 446.5 535 L 449.5 535 L 457.5 540 L 463.5 541 L 478 548.5 Q 477.1 551.5 481.5 550 L 496.5 558 L 501 558 Q 499.9 560.7 502.5 560 L 508.5 564 L 512.5 564 L 515.5 567 L 523.5 569 L 533.5 575 L 538.5 576 L 541.5 579 L 552 582 Q 550.7 585.3 555.5 584 L 558.5 587 L 562.5 587 L 571.5 593 L 576 593 Q 574.8 596 578.5 595 L 604.5 608 L 609.5 609 L 615.5 613 L 618.5 613 L 621.5 616 L 624.5 616 L 634.5 622 L 644.5 625 L 660.5 634 L 668.5 636 L 673.5 640 L 681.5 642 L 685.5 646 L 689.5 646 L 696.5 651 L 700.5 651 L 707 654 L 708.5 657 L 717.5 659 L 723.5 663 L 731.5 665 L 736.5 669 L 745 671 L 746.5 674 L 752.5 675 L 759.5 680 L 767.5 682 L 770 684.5 Q 770.8 686.8 768.5 686 L 759 693.5 Q 759.8 695.8 757.5 695 L 754 697 L 751.5 701 L 746 704.5 Q 746.8 706.8 744.5 706 L 735 714.5 Q 735.8 716.8 733.5 716 L 727.5 723 L 723 726.5 Q 723.8 728.8 721.5 728 L 712 740 L 706 744.5 L 686 769.5 L 665 800.5 L 654 819.5 L 651 827.5 L 647 832.5 L 647 835.5 Q 640 844.8 637 857 Q 634.3 858.1 635 855.5 L 627.5 847 Q 625.3 847.8 626 845.5 L 622.5 840 Q 620.3 840.8 621 838.5 L 618 834 Q 615.3 835.1 616 832.5 L 592 804.5 L 591 801 L 587 798.5 L 585.5 795 L 583 793.5 L 583 791 L 581 791 L 581 789 Q 578.3 790.1 579 787.5 L 577 784 Q 574.3 785.1 575 782.5 L 567.5 773 L 564 770.5 L 528.5 726 Q 525.9 726.8 527 723.5 L 521 719 L 517.5 713 Q 515.3 713.8 516 711.5 L 513 706 L 509 703.5 L 495.5 685 L 491 681.5 L 485 672 L 482 670.5 L 459 642.5 L 456 637 L 453 635.5 L 444.5 624 Q 442.3 624.8 443 622.5 L 417 590 Q 414.3 591.1 415 588.5 L 405.5 577 Q 402.9 577.8 404 574.5 L 388.5 556 Q 386.3 556.8 387 554.5 L 384 549 L 381 547.5 L 378.5 543 L 374 539.5 L 370 532 L 368 532 Q 369.1 529.3 366.5 530 L 331 486.5 L 326.5 479 Z M 384 512 L 380 514 Q 374 517 373 525 L 373 529 L 376 536 Q 379 540 385 541 Q 393 542 397 539 L 403 530 L 403 525 L 400 518 Q 396 510 384 512 Z " /><path fill="rgb(0,0,0)" stroke="rgb(0,0,0)" stroke-width="1" opacity="0" d="M 1009.5 619 L 1041.5 619 L 1042.5 620 L 1057.5 620 L 1058.5 621 L 1067.5 621 L 1076.5 623 L 1086.5 623 L 1102.5 626 L 1105.5 628 L 1115.5 629 L 1138 635 L 1139 644.5 L 1142 650.5 L 1143 661.5 L 1148 676.5 L 1149 686.5 L 1151 694 L 1145.5 691 L 1135.5 689 L 1125.5 685 L 1113.5 683 L 1111.5 681 L 1093.5 677 L 1086.5 677 L 1083.5 675 Q 1078.7 676.3 1077.5 674 L 1065.5 674 L 1054.5 672 L 996.5 672 L 985.5 674 L 973.5 674 Q 972.3 676.3 967.5 675 L 964.5 677 L 957.5 677 L 947.5 679 L 934.5 684 L 928.5 684 L 915.5 689 L 908.5 690 L 899.5 695 L 893 696 L 895 683.5 L 897 680.5 L 897 674.5 L 900 665.5 L 902 651.5 L 904 647.5 L 905 637 L 911.5 635 L 916.5 635 L 935.5 629 L 941.5 629 L 948.5 626 Q 958 626 964.5 623 L 974.5 623 L 975.5 622 L 993.5 621 L 994.5 620 L 1008.5 620 L 1009.5 619 Z " /><path fill="rgb(0,0,0)" stroke="rgb(0,0,0)" stroke-width="1" opacity="0" d="M 1161.5 643 L 1167.5 646 L 1176.5 648 L 1193.5 657 L 1209.5 663 L 1217.5 669 L 1227 673 Q 1228.3 676 1224.5 675 L 1219.5 679 L 1216.5 679 L 1211.5 683 L 1196.5 689 L 1176 700 L 1173 692.5 L 1172 683.5 L 1167 667.5 L 1165 652.5 L 1163 650.5 L 1161.5 643 Z " /><path fill="rgb(0,0,0)" stroke="rgb(0,0,0)" stroke-width="1" opacity="0" d="M 877.5 647 L 881 647 L 881 653.5 L 877 667.5 L 874 688.5 L 872 690.5 L 870 703.5 L 868.5 705 Q 864.1 700.3 856 700 L 854.5 697 L 845.5 695 L 843 692.5 Q 843.9 689.1 838.5 691 L 829.5 686 L 819.5 683 L 816 679.5 L 818.5 676 L 824.5 674 L 839.5 664 L 846.5 662 Q 851.3 657.3 859.5 656 L 862.5 653 Q 871.7 651.7 877.5 647 Z " /><path fill="rgb(0,0,0)" stroke="rgb(0,0,0)" stroke-width="1" opacity="0" d="M 1250.5 688 L 1273.5 704 L 1295.5 724 L 1303 729 L 1303 730.5 L 1312.5 740 L 1316 742.5 L 1323 752 L 1327 754.5 L 1344 775.5 L 1346 780 L 1349 781.5 L 1361 798.5 L 1363 804 Q 1365.7 802.9 1365 805.5 Q 1384.4 833.1 1397 867.5 L 1378.5 890 Q 1375.9 889.2 1377 892.5 L 1370.5 901 Q 1368.3 900.3 1369 902.5 L 1367 907 L 1364 908.5 L 1361.5 913 L 1358 911.5 L 1356 901.5 L 1349 884 Q 1345.3 885.4 1347 879.5 L 1342 871.5 L 1342 868.5 L 1338 860 Q 1335 861.3 1336 857.5 L 1322 832.5 L 1318 828.5 L 1311 816.5 L 1278.5 778 Q 1276.3 778.8 1277 776.5 L 1267.5 767 L 1266 767 L 1264.5 764 Q 1234.8 735.7 1197 715.5 L 1205 712 Q 1203.8 709 1207.5 710 L 1250.5 688 Z " /><path fill="rgb(0,0,0)" stroke="rgb(0,0,0)" stroke-width="1" opacity="0" d="M 1018.5 690 L 1032.5 690 L 1033.5 691 L 1049.5 691 L 1050.5 692 L 1060.5 692 L 1061.5 693 L 1072.5 693 L 1075.5 695 L 1095.5 699 L 1102.5 699 L 1104.5 701 L 1121.5 704 L 1123.5 706 L 1134.5 710 L 1138.5 710 L 1146 714.5 L 1138.5 719 L 1135.5 719 L 1130.5 724 L 1127.5 724 L 1114.5 731 L 1111.5 731 L 1105.5 736 L 1084.5 745 L 1081.5 748 L 1047.5 764 L 1044.5 767 L 1038.5 768 L 1033.5 772 L 1022.5 776 L 1009.5 769 L 1001.5 767 L 991.5 761 L 988.5 761 L 985.5 758 L 971.5 753 L 968.5 750 L 965.5 750 L 948.5 741 L 932.5 735 L 927.5 731 Q 917.9 729.1 911.5 724 L 908.5 724 L 904.5 720 L 896 717.5 L 899.5 715 L 908.5 713 L 912.5 710 L 916.5 710 L 927.5 706 L 929.5 704 L 934.5 704 L 938.5 702 L 946.5 701 L 949.5 699 L 955.5 699 L 971.5 695 L 976.5 695 L 978.5 693 L 989.5 693 L 990.5 692 L 1000.5 692 L 1001.5 691 L 1017.5 691 L 1018.5 690 Z " /><path fill="rgb(0,0,0)" stroke="rgb(0,0,0)" stroke-width="1" opacity="0" d="M 790.5 695 Q 796.6 693.8 796 696.5 Q 797 699 801.5 698 L 809.5 703 L 812.5 703 L 822.5 709 L 827.5 710 L 835.5 715 L 840 715 Q 838.8 718 842.5 717 L 847 719.5 L 829.5 730 L 817.5 740 L 815.5 740 L 782 768 L 779.5 772 L 775 775.5 L 766.5 785 Q 764.3 784.3 765 786.5 L 761.5 791 Q 759.3 790.3 760 792.5 L 746 808.5 L 719 849.5 L 718 854.5 L 715 857.5 L 706 875.5 L 701 889.5 L 699 891.5 L 689.5 922 L 669 896 L 666 894.5 L 658.5 884 L 655 881.5 L 653.5 878 Q 651.3 878.8 652 876.5 L 651 873.5 L 666 839.5 L 694 792 Q 696.7 793.1 696 790.5 Q 715.4 761.9 739.5 738 L 744 734.5 L 745.5 732 L 756 723.5 L 757.5 721 L 777 705.5 Q 776.3 703.3 778.5 704 L 790.5 695 Z " /><path fill="rgb(0,0,0)" stroke="rgb(0,0,0)" stroke-width="1" opacity="0" d="M 1184 732 L 1204.5 743 L 1220.5 754 L 1250 778.5 Q 1249.3 780.8 1251.5 780 L 1267 795.5 L 1267 797 L 1271 799.5 L 1298 833.5 L 1316 861.5 L 1316 864.5 L 1327 883.5 L 1342 923.5 L 1340.5 924 L 1331.5 918 L 1327.5 918 L 1322.5 914 L 1314.5 912 L 1311.5 909 L 1301.5 906 L 1298.5 903 L 1280.5 895 L 1277.5 895 L 1268.5 889 L 1265.5 889 L 1242.5 877 L 1239.5 877 L 1236.5 874 L 1233.5 874 L 1225.5 869 L 1222.5 869 L 1216 864.5 L 1215 858 Q 1211.3 859.4 1213 853.5 L 1210 839.5 L 1207 832.5 L 1207 824.5 L 1201 808.5 L 1201 802.5 Q 1198 799.5 1199 792.5 L 1196 785.5 L 1196 780.5 L 1190 763.5 L 1190 756.5 L 1188 748.5 L 1184 740.5 L 1184 732 Z " /><path fill="rgb(0,0,0)" stroke="rgb(0,0,0)" stroke-width="1" opacity="0" d="M 1160.5 733 L 1164 741.5 L 1165 751.5 L 1170 767.5 L 1170 771.5 L 1173 780.5 L 1173 785.5 L 1179 806.5 L 1181 808.5 L 1181 816.5 Q 1183.7 819.8 1183 826.5 L 1186 832.5 L 1186 837.5 L 1190 853 L 1183.5 851 L 1175.5 846 L 1169 845 L 1167.5 842 L 1164.5 842 L 1162.5 840 L 1157.5 839 L 1154.5 836 L 1144 833 Q 1145.3 829.7 1140.5 831 L 1128.5 824 Q 1120.6 823.4 1116.5 819 L 1113 819 Q 1114.3 815.3 1108.5 817 L 1104.5 813 L 1096.5 811 L 1091.5 807 L 1085.5 806 L 1080.5 802 L 1075.5 801 L 1065.5 795 L 1062.5 795 L 1050 788.5 L 1063.5 781 L 1066.5 781 L 1080.5 774 L 1087.5 769 L 1090.5 769 L 1102.5 763 L 1107.5 759 L 1122.5 752 L 1127.5 751 L 1130.5 748 L 1160.5 733 Z " /><path fill="rgb(0,0,0)" stroke="rgb(0,0,0)" stroke-width="1" opacity="0" d="M 861.5 734 Q 865.7 732.7 864 737.5 L 861 742.5 L 857 768.5 L 854 773.5 L 852 783.5 L 852 790.5 L 848 803.5 L 846 820.5 L 844 822.5 L 844 826.5 L 841 835.5 L 840 847.5 L 838 850.5 L 835 871 L 822.5 876 L 819.5 879 L 805.5 886 L 796.5 889 L 777.5 900 L 770.5 902 L 766.5 906 L 763.5 906 L 745 915.5 Q 745.8 918.1 742.5 917 L 706.5 935 L 706 933.5 L 708 930.5 L 711 916.5 L 715 909.5 L 715 905.5 L 720 895.5 L 720 892.5 L 726 882.5 L 727 877.5 L 733 865.5 L 736 862.5 L 738 856.5 L 742 852.5 L 750 837.5 L 761 823.5 L 761 821 L 765 818.5 Q 781.9 794.9 803.5 776 L 830.5 754 L 861.5 734 Z " /><path fill="rgb(0,0,0)" stroke="rgb(0,0,0)" stroke-width="1" opacity="0" d="M 884 738 L 894.5 741 L 915.5 752 L 931.5 758 L 936.5 762 L 939.5 762 L 947.5 767 L 955.5 769 L 960.5 773 L 997 788.5 L 993.5 792 Q 982.5 794.5 975.5 801 L 972.5 801 L 966.5 806 L 948.5 813 L 942.5 818 L 937.5 819 L 929.5 824 L 926.5 824 L 917.5 830 L 910.5 832 L 859.5 859 L 859 855.5 L 861 849.5 L 862 838.5 L 865 830.5 L 867 812.5 L 870 806.5 L 873 792.5 L 873 785.5 L 876 779.5 L 878 769.5 L 878 762.5 L 884 738 Z " /><path fill="rgb(0,0,0)" stroke="rgb(0,0,0)" stroke-width="1" opacity="0" d="M 1023.5 802 L 1034 806.5 L 1015.5 807 L 1015.5 806 L 1023.5 802 Z " /><path fill="rgb(0,0,0)" stroke="rgb(0,0,0)" stroke-width="1" opacity="0" d="M 1014.5 826 L 1052.5 827 L 1054.5 829 L 1068.5 831 L 1090.5 837 L 1117.5 849 L 1135.5 860 L 1164 883 L 1166.5 887 Q 1168.8 886.3 1168 888.5 L 1175 895.5 L 1192 918.5 L 1200 935.5 L 1204 940.5 L 1206 948.5 L 1209 951.5 Q 1209.5 963.5 1215 970.5 L 1215 976.5 L 1221 998.5 L 1221 1045.5 Q 1218.8 1046.7 1220 1051.5 L 1218 1053.5 L 1214 1076.5 L 1212 1078.5 L 1209 1091.5 L 1192 1126 Q 1189.3 1124.9 1190 1127.5 Q 1175 1151 1154.5 1169 L 1124.5 1191 L 1104 1200 Q 1105.3 1203 1101.5 1202 L 1080.5 1210 L 1076.5 1210 L 1069.5 1213 L 1055.5 1216 L 1043.5 1216 L 1042.5 1217 L 1008.5 1217 L 1007.5 1216 L 995.5 1216 L 985.5 1214 L 979.5 1211 L 971.5 1210 L 950.5 1203 L 918.5 1186 L 889 1162.5 L 885.5 1158 Q 883.3 1158.8 884 1156.5 L 878 1152 L 878 1149.5 L 869 1139.5 L 856 1120.5 L 844 1096.5 L 841 1085.5 L 839 1083.5 L 838 1074.5 L 832 1055.5 L 832 1045.5 L 830 1034.5 L 830 1009.5 L 831 1008.5 L 833 983.5 L 837 973.5 L 839 960.5 Q 843.5 956 844 947.5 L 856 923.5 L 867 906.5 L 877 895.5 L 878 892 L 884 887.5 Q 883.3 885.3 885.5 886 Q 906.5 863 935.5 848 L 969.5 834 L 982.5 832 L 991.5 829 L 996.5 829 L 998.5 827 L 1013.5 827 L 1014.5 826 Z " /><path fill="rgb(0,0,0)" stroke="rgb(0,0,0)" stroke-width="1" opacity="0" d="M 1184.5 876 L 1188.5 877 L 1198 883.5 L 1198 888.5 L 1200 894.5 L 1199 894.5 Q 1194.3 884.7 1186.5 878 L 1184.5 876 Z " /><path fill="rgb(0,0,0)" stroke="rgb(0,0,0)" stroke-width="1" opacity="0" d="M 857.5 885 L 859 885.5 L 857 889 L 853 891.5 L 850.5 896 L 851 894.5 L 852 887 L 857.5 885 Z " /><path fill="rgb(0,0,0)" stroke="rgb(0,0,0)" stroke-width="1" opacity="0" d="M 1406.5 892 L 1413 913.5 L 1415 915.5 Q 1415.4 930.1 1421 939.5 L 1423 960.5 L 1421.5 960 L 1413.5 956 L 1410.5 956 L 1406.5 953 L 1402.5 953 L 1393.5 947 L 1390.5 947 L 1380.5 941 L 1377.5 941 L 1371 937.5 L 1384.5 920 Q 1387.1 920.8 1386 917.5 Q 1393 912.5 1396.5 904 L 1401 900.5 L 1406.5 892 Z " /><path fill="rgb(0,0,0)" stroke="rgb(0,0,0)" stroke-width="1" opacity="0" d="M 1223.5 894 L 1229.5 898 L 1233.5 898 L 1237.5 901 L 1249 905 Q 1247.8 908 1251.5 907 L 1262.5 913 L 1270.5 915 L 1279.5 921 L 1283.5 921 L 1288.5 925 L 1298 927 L 1299.5 930 L 1309.5 933 L 1318.5 939 L 1322 939 Q 1320.7 942.7 1326.5 941 L 1329.5 944 Q 1333.3 943.3 1334 945.5 L 1332 951.5 L 1324.5 961 L 1322 962.5 L 1313.5 975 Q 1311.3 974.3 1312 976.5 L 1311 979 Q 1308.3 977.9 1309 980.5 L 1262.5 1041 L 1259.5 1043 L 1255 1028.5 L 1254 1017.5 L 1251 1012.5 L 1251 1007.5 L 1248 999.5 L 1248 993.5 L 1246 989.5 L 1243 974.5 L 1241 971.5 L 1240 961.5 L 1237 954.5 Q 1236.3 941.7 1232 932.5 L 1232 927.5 L 1230 925.5 L 1230 920.5 L 1226 906 L 1224 905.5 L 1224 895.5 L 1223.5 894 Z " /><path fill="rgb(0,0,0)" stroke="rgb(0,0,0)" stroke-width="1" opacity="0" d="M 828.5 899 L 829 900.5 L 827 902.5 L 825 910.5 L 823 927.5 L 813 967.5 L 809 993.5 Q 806.4 996.4 807 1002.5 L 805 1005.5 L 805 1010.5 L 797 1044.5 L 797 1050.5 L 795.5 1052 L 771 1020 L 767 1017.5 L 767 1015.5 L 762.5 1011 Q 760.3 1011.8 761 1009.5 L 745.5 990 Q 743.3 990.8 744 988.5 L 735 976 L 732 974.5 L 717 954 L 728.5 950 L 747.5 939 L 753.5 938 L 759.5 933 L 771.5 927 L 777.5 926 L 783.5 921 L 788.5 920 L 793.5 916 L 802.5 913 L 828.5 899 Z " /><path fill="rgb(0,0,0)" stroke="rgb(0,0,0)" stroke-width="1" opacity="0" d="M 641.5 901 L 663 927 Q 666 925.8 665 929.5 L 677.5 944 Q 679.8 943.3 679 945.5 L 680 947.5 L 675.5 951 L 666.5 954 L 655.5 961 L 626 975 L 627 955.5 L 629 953.5 L 633 933.5 L 633 927.5 L 636 922.5 L 641.5 901 Z " /><path fill="rgb(0,0,0)" stroke="rgb(0,0,0)" stroke-width="1" opacity="0" d="M 1371.5 962 L 1398.5 976 L 1401.5 976 L 1405.5 979 L 1427 988 L 1427 997.5 L 1428 998.5 L 1428 1045.5 L 1427 1046.5 L 1427 1057.5 L 1426 1058.5 L 1426 1072.5 L 1424 1076.5 L 1424 1081.5 L 1422 1088.5 L 1421 1104.5 L 1418 1110.5 L 1415 1122.5 L 1415 1128.5 L 1412 1132.5 L 1409 1146.5 L 1395 1183.5 L 1382 1210.5 L 1377.5 1216 L 1318 1215.5 L 1328 1201.5 L 1330 1195.5 L 1336 1186.5 L 1336 1184 Q 1338.7 1185.1 1338 1182.5 L 1356 1142.5 L 1369 1097.5 L 1371 1087.5 L 1371 1078.5 L 1374 1064.5 L 1375 1043.5 L 1377 1040.5 L 1377 1003.5 L 1375 1000.5 L 1374 978.5 L 1371.5 962 Z " /><path fill="rgb(0,0,0)" stroke="rgb(0,0,0)" stroke-width="1" opacity="0" d="M 1350.5 965 Q 1353.9 964.1 1352 969.5 L 1354 972.5 L 1355 991.5 L 1356 992.5 L 1356 1051.5 L 1355 1052.5 L 1355 1065.5 Q 1352.8 1066.8 1354 1071.5 L 1352 1073.5 L 1350 1091.5 L 1345 1105.5 L 1344 1114.5 L 1339 1126.5 L 1338 1133.5 L 1333 1142.5 L 1326 1162.5 L 1323 1165.5 L 1315 1183.5 L 1300.5 1206 Q 1297.5 1206.9 1299 1202.5 L 1296 1197.5 L 1295 1186.5 L 1289 1167.5 L 1289 1159.5 L 1285 1150.5 L 1283 1137.5 L 1279 1128.5 L 1277 1113.5 L 1273 1101.5 L 1272 1090.5 L 1266 1073.5 L 1280.5 1055 L 1283 1053.5 L 1284 1049 Q 1286.7 1050.1 1286 1047.5 L 1337.5 981 Q 1339.8 981.8 1339 979.5 L 1347 969.5 L 1347 967 L 1350.5 965 Z " /><path fill="rgb(0,0,0)" stroke="rgb(0,0,0)" stroke-width="1" opacity="0" d="M 698.5 970 L 704.5 977 Q 706.8 976.3 706 978.5 L 708.5 983 L 712 985.5 L 715 991 L 718 992.5 L 720 997 L 723 998.5 L 724 1001.5 L 750.5 1033 Q 753.1 1032.2 752 1035.5 L 757 1039.5 L 757 1041.5 L 768 1055 Q 770.7 1053.9 770 1056.5 L 772.5 1060 L 775 1061.5 L 775 1063.5 L 780 1070 Q 782.7 1068.9 782 1071.5 L 790 1081.5 L 787 1088.5 L 787 1095.5 L 783 1109.5 L 779 1134.5 L 776 1140.5 L 775 1152.5 L 772 1161.5 L 768 1187.5 L 765 1192.5 L 764 1204.5 L 759.5 1219 L 750 1206.5 L 736 1181.5 L 733 1178.5 L 731 1171.5 L 721 1153.5 L 720 1148.5 L 715 1138.5 L 714 1131.5 L 709 1121.5 L 709 1117.5 L 705 1107.5 L 703 1093.5 L 700 1086.5 L 700 1081.5 L 698 1075.5 L 696 1048.5 L 694 1046.5 L 693 1014.5 L 694 1013.5 L 694 998.5 L 696 995.5 L 696 986.5 L 697 985.5 L 698.5 970 Z " /><path fill="rgb(0,0,0)" stroke="rgb(0,0,0)" stroke-width="1" opacity="0" d="M 677.5 975 L 677 976.5 Q 678.8 982.8 676 984.5 L 676 1010.5 L 675 1011.5 L 675 1032.5 L 676 1033.5 L 676 1059.5 L 677 1060.5 L 679 1080.5 L 682 1097.5 L 684 1100.5 L 684 1104.5 L 688 1119.5 L 690 1122.5 L 691 1129.5 L 699 1152.5 L 702 1156.5 L 706 1168.5 L 715 1186.5 L 718 1189.5 L 725 1204.5 L 739 1224.5 L 687.5 1225 L 686.5 1226 L 678 1226 L 666 1204.5 L 654 1178.5 L 650 1165.5 L 644 1153.5 L 644 1149.5 L 640 1140.5 L 636 1121.5 L 633 1115.5 L 633 1109.5 L 631 1104.5 L 629 1090.5 L 627 1088.5 L 626 1065.5 L 624 1054.5 L 624 1041.5 L 622 1037.5 L 622 1005.5 L 627.5 999 L 637.5 994 L 640.5 994 Q 657.3 982.8 677.5 975 Z " /><path fill="rgb(0,0,0)" stroke="rgb(0,0,0)" stroke-width="1" opacity="0" d="M 1448.5 998 L 1456.5 1003 L 1459.5 1003 L 1461.5 1005 L 1464.5 1005 Q 1469.3 1009.7 1477.5 1011 L 1480.5 1014 L 1491 1017 Q 1489.9 1019.7 1492.5 1019 L 1502.5 1022 L 1506.5 1026 L 1514.5 1028 L 1519.5 1032 L 1528 1034 L 1529.5 1037 L 1537.5 1039 L 1557.5 1049 L 1561 1049 L 1562.5 1052 L 1565.5 1052 L 1575.5 1058 L 1578.5 1058 L 1580.5 1060 L 1589.5 1063 L 1592.5 1066 L 1595.5 1066 L 1619.5 1078 L 1622.5 1078 L 1629.5 1083 L 1634.5 1084 L 1649.5 1092 L 1652.5 1092 L 1655.5 1095 L 1658.5 1095 L 1664.5 1099 L 1678.5 1104 L 1683.5 1108 Q 1690.7 1108.8 1694.5 1113 L 1702.5 1115 L 1706.5 1119 L 1717 1122 Q 1715.8 1125 1719.5 1124 L 1725.5 1127 L 1728.5 1127 L 1733.5 1131 L 1741.5 1133 L 1745.5 1137 L 1754.5 1139 L 1762.5 1144 L 1767 1144 L 1768 1148 L 1772.5 1148 L 1774.5 1150 L 1780 1151 Q 1778.7 1154.3 1783.5 1153 Q 1784.9 1155.6 1789.5 1155 L 1793.5 1159 L 1800.5 1162 L 1804.5 1162 L 1811.5 1167 L 1817 1167 L 1818.5 1170 L 1830 1174.5 L 1831.5 1177 L 1834.5 1177 L 1843.5 1182 L 1846.5 1182 L 1876.5 1197 L 1880 1197 Q 1878.8 1200 1882.5 1199 L 1898 1206.5 L 1875.5 1207 L 1874.5 1208 L 1751.5 1209 L 1750.5 1210 L 1567.5 1211 L 1564.5 1213 L 1495.5 1213 L 1494.5 1214 L 1434.5 1214 L 1433.5 1215 L 1402 1215 L 1418 1180.5 L 1425 1157.5 L 1427 1155.5 L 1431 1138.5 L 1434 1133.5 L 1436 1118.5 L 1440 1106.5 L 1441 1092.5 Q 1443.3 1091.3 1442 1086.5 L 1444 1084.5 L 1444 1078.5 L 1446 1070.5 L 1446 1061.5 L 1447 1060.5 L 1448.5 998 Z M 1805 1170 L 1798 1172 Q 1791 1175 1790 1183 L 1791 1193 L 1800 1200 Q 1808 1201 1813 1199 Q 1818 1196 1820 1189 Q 1821 1179 1816 1176 Q 1812 1171 1805 1170 Z " /><path fill="rgb(0,0,0)" stroke="rgb(0,0,0)" stroke-width="1" opacity="0" d="M 601.5 1013 L 603 1013.5 L 603 1041.5 L 604 1042.5 L 604 1056.5 L 606 1058.5 L 607 1082.5 L 612 1104.5 L 613 1116.5 L 615 1124.5 L 617 1126.5 L 619 1139.5 L 623 1147.5 L 625 1158.5 L 628 1163.5 L 632 1178 Q 635 1176.8 634 1180.5 L 641 1198.5 L 655 1225.5 L 625.5 1226 L 624.5 1227 L 564.5 1227 L 563.5 1228 L 441.5 1228 L 438.5 1230 L 369.5 1230 L 368.5 1231 L 307.5 1231 L 306.5 1232 L 184.5 1232 L 183.5 1233 L 163.5 1233 L 163.5 1232 L 178.5 1225 L 185.5 1220 L 188.5 1220 L 252.5 1188 L 257.5 1184 L 267 1181 Q 265.8 1178 269.5 1179 L 601.5 1013 Z M 242 1196 L 236 1199 L 230 1207 Q 229 1216 232 1220 L 241 1226 Q 249 1227 253 1224 Q 257 1221 259 1215 Q 260 1207 257 1203 Q 253 1195 242 1196 Z " /><path fill="rgb(0,0,0)" stroke="rgb(0,0,0)" stroke-width="1" opacity="0" d="M 1238.5 1053 L 1239 1057.5 L 1243 1066.5 L 1235.5 1076 L 1235 1071.5 L 1237 1065.5 L 1237 1058.5 L 1238.5 1053 Z " /><path fill="rgb(0,0,0)" stroke="rgb(0,0,0)" stroke-width="1" opacity="0" d="M 814.5 1066 L 816 1074.5 L 818 1077.5 L 816 1076.5 L 813 1070.5 L 814.5 1066 Z " /><path fill="rgb(0,0,0)" stroke="rgb(0,0,0)" stroke-width="1" opacity="0" d="M 1249.5 1096 L 1251 1104.5 L 1254 1110.5 L 1256 1125.5 L 1259 1131.5 L 1262 1143.5 L 1263 1154.5 L 1268 1169.5 L 1268 1173.5 L 1270 1176.5 L 1270 1182.5 L 1272 1185.5 L 1274 1198.5 L 1276 1200.5 L 1278 1216 L 1248.5 1216 L 1247.5 1217 L 1193.5 1217 L 1192.5 1218 L 1175.5 1218 L 1174.5 1219 L 1173.5 1218 L 1155 1217.5 L 1168 1199.5 L 1178 1188.5 L 1184 1178 Q 1186.7 1179.1 1186 1176.5 L 1197 1162 L 1200 1160.5 L 1202.5 1155 Q 1204.8 1155.8 1204 1153.5 L 1208.5 1148 Q 1211.1 1148.8 1210 1145.5 L 1226.5 1125 Q 1228.8 1125.8 1228 1123.5 L 1231.5 1118 L 1235 1115.5 L 1241 1105 Q 1243.7 1106.1 1243 1103.5 L 1249.5 1096 Z " /><path fill="rgb(0,0,0)" stroke="rgb(0,0,0)" stroke-width="1" opacity="0" d="M 806 1102 L 810 1104.5 L 832.5 1133 L 835 1134.5 L 837.5 1139 L 840 1140.5 L 842 1145.5 L 849.5 1154 L 853 1156.5 Q 852.5 1160.5 855.5 1161 Q 857.8 1160.3 857 1162.5 L 858 1165 L 861 1166.5 L 902.5 1218 Q 904.8 1217.3 904 1219.5 L 905 1222 L 874.5 1222 L 873.5 1223 L 805.5 1223 L 804.5 1224 L 781 1224 L 785 1206.5 L 787 1190.5 L 791 1179.5 L 792 1168.5 L 798 1145.5 L 799 1133.5 L 802 1127.5 L 803 1115.5 L 806 1106.5 L 806 1102 Z " /><path fill="rgb(0,0,0)" stroke="rgb(0,0,0)" stroke-width="1" opacity="0" d="M 1130.5 1210 L 1130 1211.5 L 1124.5 1219 L 1114 1218.5 L 1130.5 1210 Z " /><path fill="rgb(0,0,0)" stroke="rgb(0,0,0)" stroke-width="1" opacity="0" d="M 931.5 1216 L 942 1220.5 L 936.5 1222 L 933 1219.5 L 931.5 1216 Z " /><path fill="rgb(0,0,0)" stroke="rgb(0,0,0)" stroke-width="1" opacity="0" d="M 1314.5 1237 L 1366 1237.5 L 1349 1262.5 L 1324.5 1292 L 1320.5 1295 L 1319 1292.5 L 1316 1273.5 L 1313 1266.5 L 1312 1254.5 L 1307 1242.5 L 1307 1238 L 1313.5 1238 L 1314.5 1237 Z " /><path fill="rgb(0,0,0)" stroke="rgb(0,0,0)" stroke-width="1" opacity="0" d="M 1183.5 1238 L 1276 1238.5 L 1268.5 1247 L 1265 1249.5 L 1259 1258 L 1249 1265.5 L 1245.5 1270 L 1234 1278.5 L 1232.5 1281 L 1214.5 1293 L 1209.5 1298 L 1205.5 1299 L 1191.5 1309 L 1166.5 1322 L 1149.5 1328 L 1140.5 1333 L 1137.5 1333 L 1132.5 1336 L 1122.5 1338 L 1115.5 1341 L 1099.5 1345 L 1094.5 1345 L 1091.5 1347 L 1069.5 1351 L 1051.5 1352 L 1054 1348.5 L 1070 1326 Q 1072.7 1327.1 1072 1324.5 L 1081 1312 Q 1083.7 1313.1 1083 1310.5 L 1084 1307 L 1089 1303.5 L 1091 1298 L 1095 1295.5 L 1107 1278 Q 1109.7 1279.1 1109 1276.5 L 1121.5 1260 L 1124 1258.5 L 1124 1256.5 L 1132 1247.5 L 1132 1245 L 1137 1241.5 L 1138.5 1239 L 1182.5 1239 L 1183.5 1238 Z " /><path fill="rgb(0,0,0)" stroke="rgb(0,0,0)" stroke-width="1" opacity="0" d="M 1066.5 1240 L 1108 1240.5 L 1105 1242.5 L 1104 1247 L 1099 1250.5 L 1085.5 1270 Q 1083.3 1269.3 1084 1271.5 L 1079.5 1277 Q 1077.3 1276.3 1078 1278.5 L 1067.5 1293 L 1065 1294.5 L 1063 1300 L 1060 1301.5 L 1032.5 1338 L 1029 1335.5 L 1026 1330 Q 1023.3 1331.1 1024 1328.5 L 1017.5 1320 L 1015 1318.5 L 1013.5 1316 Q 1010.9 1316.8 1012 1313.5 L 1008 1311 Q 1007.6 1306.3 1003.5 1304 Q 1001.3 1304.8 1002 1302.5 L 998.5 1298 Q 996.3 1298.8 997 1296.5 L 994 1291 L 990 1288.5 L 987 1283 Q 984.3 1284.1 985 1281.5 L 982 1276 L 978 1273.5 L 974.5 1269 Q 972.3 1269.8 973 1267.5 L 954 1243.5 L 995.5 1243 L 996.5 1242 L 1064.5 1242 L 1066.5 1240 Z " /><path fill="rgb(0,0,0)" stroke="rgb(0,0,0)" stroke-width="1" opacity="0" d="M 818.5 1244 L 924.5 1244 L 927 1246.5 L 932.5 1255 L 935 1256.5 L 936 1260 L 941 1263.5 L 956.5 1284 Q 958.8 1283.3 958 1285.5 L 961.5 1290 Q 963.8 1289.3 963 1291.5 L 966 1296 L 970 1298.5 L 978 1311 L 982 1313.5 L 983.5 1317 L 986 1318.5 L 987 1321.5 L 1014 1352.5 L 1008.5 1353 L 1007.5 1352 L 981.5 1351 L 959.5 1347 L 956.5 1345 L 950.5 1345 L 946.5 1343 L 924.5 1338 L 916.5 1334 L 905.5 1331 Q 899.7 1326.3 890.5 1325 L 861.5 1310 L 840.5 1297 L 836.5 1293 L 834.5 1293 L 816 1278.5 Q 816.8 1276.3 814.5 1277 L 803 1267.5 L 801.5 1265 L 784 1248.5 Q 784.8 1246.3 782.5 1247 L 781.5 1245 L 817.5 1245 L 818.5 1244 Z " /><path fill="rgb(0,0,0)" stroke="rgb(0,0,0)" stroke-width="1" opacity="0" d="M 748.5 1245 L 755 1245.5 L 753 1249.5 L 752 1262.5 L 748 1272.5 L 746 1282.5 L 746 1289.5 L 744 1293.5 L 741.5 1307 L 730 1295.5 L 730 1294 L 727 1292.5 Q 709.7 1273.8 695.5 1252 Q 693.3 1252.8 694 1250.5 L 692 1246 L 747.5 1246 L 748.5 1245 Z " /><path fill="rgb(0,0,0)" stroke="rgb(0,0,0)" stroke-width="1" opacity="0" d="M 1288.5 1255 L 1290 1263.5 L 1292 1266.5 L 1294 1281.5 L 1296 1288.5 L 1298 1290.5 L 1298 1295.5 L 1303 1313.5 L 1274.5 1339 L 1253.5 1353 L 1248.5 1358 L 1246.5 1358 L 1220.5 1375 L 1200.5 1384 L 1197.5 1387 L 1194.5 1387 L 1185.5 1392 L 1177.5 1394 L 1173.5 1397 Q 1162.6 1398.6 1155.5 1404 L 1147.5 1405 L 1135.5 1410 L 1126.5 1411 L 1112.5 1416 L 1097.5 1418 L 1081.5 1398 L 1078 1395.5 L 1073.5 1388 Q 1071.3 1388.8 1072 1386.5 Q 1063.7 1380.5 1060 1371 L 1074.5 1370 L 1077.5 1368 L 1082.5 1368 L 1088.5 1366 L 1099.5 1366 L 1106.5 1363 L 1126.5 1359 L 1128.5 1357 L 1155.5 1349 L 1159.5 1346 L 1182.5 1337 L 1210.5 1321 L 1234.5 1305 L 1251 1291.5 Q 1250.3 1289.3 1252.5 1290 L 1263 1281.5 L 1265.5 1278 L 1269 1275.5 L 1270.5 1273 L 1280 1264.5 L 1283.5 1260 Q 1285.8 1260.8 1285 1258.5 L 1288.5 1255 Z " /><path fill="rgb(0,0,0)" stroke="rgb(0,0,0)" stroke-width="1" opacity="0" d="M 772.5 1266 L 775 1267 L 778.5 1272 L 782 1274.5 L 783.5 1277 L 801 1291.5 Q 800.3 1293.8 802.5 1293 L 814 1301 Q 812.9 1303.7 815.5 1303 L 825.5 1311 L 847.5 1325 L 856.5 1329 L 859.5 1332 L 871.5 1338 L 876.5 1339 L 882.5 1343 L 889.5 1345 L 893.5 1348 L 913.5 1355 L 917.5 1355 L 928.5 1360 L 936.5 1361 L 952.5 1366 L 962.5 1366 L 983.5 1371 L 1005 1372 L 1004 1376 Q 1001.3 1374.9 1002 1377.5 L 993 1388.5 L 992 1392 L 988 1394.5 L 968.5 1421 L 929.5 1414 L 924.5 1411 L 912.5 1409 L 899.5 1404 L 895.5 1404 L 888.5 1400 L 879.5 1398 L 871.5 1393 L 865.5 1392 L 854.5 1387 L 830.5 1375 L 817.5 1366 L 811.5 1364 L 779.5 1341 L 759 1323.5 Q 761.9 1318.9 761 1310.5 L 764 1305.5 L 767 1286.5 L 772.5 1266 Z " /><path fill="rgb(0,0,0)" stroke="rgb(0,0,0)" stroke-width="1" opacity="0" d="M 1308.5 1336 L 1311 1350.5 L 1315 1358.5 L 1315 1364.5 L 1318 1375.5 L 1318 1380.5 L 1320 1383.5 L 1322 1395.5 L 1327 1407.5 L 1327 1416.5 L 1332 1430.5 L 1334 1445.5 L 1337 1451.5 L 1338 1460.5 L 1343 1475.5 L 1344 1487.5 L 1350 1503.5 L 1351 1515.5 L 1355 1523.5 L 1356 1534.5 L 1359 1541.5 L 1362 1560.5 L 1365 1565.5 L 1368 1576.5 L 1368 1583.5 L 1373 1600.5 L 1374 1610.5 Q 1379.4 1619.1 1380 1632.5 L 1382 1634.5 L 1383 1646.5 L 1391 1672.5 L 1391 1679.5 L 1393 1681.5 L 1399 1706.5 L 1399 1711.5 L 1408 1741.5 L 1411 1760.5 L 1413 1767.5 L 1415 1769.5 L 1416 1780.5 L 1419 1792 Q 1423 1790.6 1421 1797.5 L 1424 1813.5 L 1426 1817.5 L 1424 1816.5 L 1421 1810 L 1418 1808.5 L 1415.5 1805 Q 1413.3 1805.8 1414 1803.5 L 1404.5 1791 L 1402 1789.5 L 1372 1751 L 1369 1749.5 L 1360.5 1738 L 1358 1736.5 L 1356.5 1733 L 1354 1731.5 L 1350.5 1726 L 1349 1726 L 1349 1723 Q 1346.3 1724.1 1347 1721.5 L 1344 1717 L 1341 1715.5 L 1338.5 1711 L 1336 1709.5 L 1306.5 1672 Q 1304.3 1672.8 1305 1670.5 L 1292.5 1655 L 1290 1653.5 L 1284.5 1645 L 1283 1645 L 1283 1643 Q 1280.3 1644.1 1281 1641.5 L 1274.5 1633 L 1272 1631.5 L 1270.5 1628 L 1267 1625.5 L 1265.5 1622 L 1263 1620.5 L 1262 1617 Q 1259.3 1618.1 1260 1615.5 L 1257 1611 L 1253 1608.5 L 1231.5 1581 Q 1228.9 1581.8 1230 1578.5 L 1224 1574 L 1224 1571.5 L 1220.5 1567 L 1218 1565.5 L 1215.5 1561 L 1212 1558.5 L 1209.5 1554 L 1207 1552.5 L 1206 1549.5 Q 1181.1 1522.9 1159.5 1493 L 1157 1491.5 L 1155 1487.5 L 1138 1468.5 L 1137 1465 L 1132 1461.5 L 1128 1454 L 1125 1452.5 L 1123 1448 L 1120 1446.5 L 1118 1443.5 L 1112 1435.5 L 1133.5 1430 L 1137.5 1430 L 1171.5 1418 L 1177.5 1417 L 1183.5 1413 L 1189.5 1412 L 1197.5 1407 L 1205.5 1405 L 1217.5 1399 L 1220.5 1396 L 1240 1387 Q 1238.9 1384.3 1241.5 1385 L 1273.5 1365 L 1308.5 1336 Z M 1380 1717 L 1376 1719 L 1369 1728 Q 1368 1736 1371 1740 L 1379 1746 Q 1387 1748 1391 1745 L 1398 1736 Q 1399 1728 1396 1724 L 1389 1717 L 1380 1717 Z " /><path fill="rgb(0,0,0)" stroke="rgb(0,0,0)" stroke-width="1" opacity="0" d="M 755.5 1347 L 777.5 1365 L 782.5 1367 L 795.5 1377 L 810.5 1385 L 814.5 1389 L 828.5 1395 L 837.5 1401 L 853.5 1407 L 859.5 1411 L 867.5 1413 L 876.5 1418 L 879.5 1418 L 906.5 1428 L 931.5 1434 L 940.5 1435 L 942.5 1437 Q 949.9 1436.1 954 1438.5 L 912.5 1493 Q 910.3 1492.3 911 1494.5 L 900 1510 Q 897.3 1508.9 898 1511.5 L 872.5 1545 L 870 1546.5 L 868 1552 L 865 1553.5 L 856.5 1566 L 854 1567.5 L 852 1572 Q 849.3 1570.9 850 1573.5 L 846 1581 L 841 1584.5 L 840 1587.5 L 829 1600.5 L 828 1604 Q 825.3 1602.9 826 1605.5 L 824 1609 L 820 1611 L 820 1613.5 Q 813.3 1618.8 809.5 1627 L 807 1628.5 L 805.5 1632 L 803 1633.5 L 795.5 1645 Q 793.3 1644.3 794 1646.5 L 761.5 1689 L 759 1690.5 L 759 1692.5 Q 752.2 1696.2 749.5 1704 Q 747.3 1703.3 748 1705.5 L 742 1715 Q 739.3 1713.9 740 1716.5 L 730 1728.5 L 729 1732 Q 726.3 1730.9 727 1733.5 L 710.5 1755 L 707 1757.5 Q 707.5 1761.5 704.5 1762 Q 701.9 1761.2 703 1764.5 Q 695.8 1768.7 694 1777 Q 691.3 1775.9 692 1778.5 L 653.5 1827 L 653 1821.5 L 655 1812.5 L 657 1809.5 L 657 1803.5 L 666 1766.5 L 666 1759.5 L 668 1756.5 L 669 1746.5 L 674 1729.5 L 674 1724.5 L 678 1710.5 L 682 1684.5 L 685 1678.5 L 686 1667.5 L 692 1644.5 L 694 1627.5 L 696 1625.5 Q 695.4 1619.4 698 1616.5 L 698 1609.5 L 703 1594.5 L 704 1582.5 L 707 1573.5 L 710 1552.5 L 714 1542.5 L 715 1530.5 Q 720.5 1515 722 1495.5 L 724 1493.5 L 727 1480.5 L 727 1473.5 L 731 1462.5 L 733 1443.5 L 735 1441.5 Q 734.4 1435.4 737 1432.5 L 739 1415.5 L 742 1410.5 L 744 1394.5 L 749 1375.5 L 750 1363.5 L 752 1361.5 Q 752.3 1352.8 755.5 1347 Z M 692 1727 L 686 1730 L 680 1738 L 681 1750 L 691 1757 Q 699 1758 703 1755 L 709 1747 L 709 1739 L 705 1731 Q 701 1727 692 1727 Z " /><path fill="rgb(0,0,0)" stroke="rgb(0,0,0)" stroke-width="1" opacity="0" d="M 1032.5 1377 L 1036 1379.5 L 1038 1384 L 1041 1385.5 L 1043 1390 Q 1045.7 1388.9 1045 1391.5 L 1047.5 1395 L 1051 1397.5 L 1052 1400.5 L 1060 1408.5 L 1060 1411 L 1064 1413.5 L 1066.5 1418 L 1070 1420.5 L 1069.5 1422 L 1062.5 1422 L 1061.5 1423 L 1050.5 1423 L 1047.5 1425 L 1002.5 1425 L 997 1422.5 Q 1000.4 1414.4 1007 1409.5 L 1007 1407 Q 1009.7 1408.1 1009 1405.5 L 1030.5 1378 L 1032.5 1377 Z " /><path fill="rgb(139,150,243)" stroke="rgb(139,150,243)" stroke-width="1" opacity="0.796078431372549" d="M 1012.5 44 L 1016 46.5 L 1018 56.5 L 1020 58.5 L 1020 63.5 L 1025 80.5 L 1028 97.5 L 1031 103.5 L 1032 113.5 L 1038 132.5 L 1038 141.5 L 1043 153.5 L 1045 168.5 L 1049 177.5 L 1051 192.5 L 1054 198.5 L 1055 209.5 L 1061 226.5 L 1062 237.5 L 1066 249.5 L 1066 254.5 L 1070 264.5 L 1073 282.5 L 1077 291.5 L 1078 305.5 L 1083 317.5 L 1085 330.5 L 1087 332.5 L 1090 351.5 L 1094 362.5 L 1096 378.5 L 1098 380.5 L 1101 390.5 L 1102 402.5 L 1104 405.5 L 1107 422.5 L 1111 431.5 L 1113 449 Q 1116.3 447.7 1115 452.5 L 1117 456.5 L 1119 471.5 L 1126 493.5 L 1126 498.5 L 1131 515.5 L 1131 520.5 L 1134 527.5 L 1135 537.5 L 1137 540.5 L 1137 544.5 L 1143 562.5 L 1145 578.5 L 1148 584.5 L 1149 592.5 L 1151 596.5 L 1151 602.5 L 1154 608.5 L 1156 620 L 1172.5 625 L 1191.5 634 L 1203.5 638 L 1249.5 663 L 1258 660 Q 1256.8 657 1260.5 658 L 1306.5 634 L 1311.5 633 L 1324.5 625 L 1331.5 623 L 1336.5 619 L 1343.5 617 L 1348.5 613 L 1357.5 610 L 1360.5 607 L 1367.5 605 L 1370.5 602 L 1382.5 596 L 1389.5 594 L 1406.5 584 L 1423.5 577 L 1428.5 573 L 1443.5 567 L 1446.5 564 L 1462.5 556 L 1467.5 555 L 1482 547.5 L 1483.5 545 L 1491.5 543 L 1505.5 536 L 1508.5 533 L 1523.5 527 L 1534.5 520 L 1549.5 514 L 1558.5 508 L 1575.5 501 L 1580.5 497 L 1596.5 489 L 1601.5 488 L 1650.5 462 L 1657.5 460 L 1671.5 451 L 1679.5 449 L 1684.5 445 L 1691.5 443 L 1694.5 440 L 1708.5 433 L 1713.5 432 L 1720.5 427 L 1725.5 426 L 1732.5 421 L 1735.5 421 L 1757.5 409 L 1783.5 398 L 1786 399 L 1786 402.5 L 1781 407.5 L 1775 417.5 L 1769 423.5 L 1753 445.5 L 1744 454.5 L 1739.5 462 L 1737 463.5 L 1735 468.5 L 1728 475.5 L 1714 495.5 L 1704 506.5 L 1696 519 L 1693 520.5 L 1693 522.5 L 1687 528.5 L 1685 534 L 1681 536.5 L 1677.5 542 Q 1675.3 541.3 1676 543.5 L 1656.5 569 L 1654 570.5 L 1654 572.5 L 1648 581 Q 1645.3 579.9 1646 582.5 L 1638.5 592 Q 1636.3 591.3 1637 593.5 L 1585 662 Q 1582.3 660.9 1583 663.5 L 1578.5 670 L 1576 671.5 L 1568 684.5 L 1560.5 693 Q 1557.9 692.2 1559 695.5 L 1544.5 714 L 1542 715.5 L 1540 721 L 1537 722.5 L 1534 729 L 1531 730.5 L 1507 761.5 L 1505 766 Q 1502.3 764.9 1503 767.5 L 1494 780 Q 1491.3 778.9 1492 781.5 L 1466 816 Q 1463 814.8 1464 818.5 L 1459 822.5 L 1458 826.5 L 1449.5 837 Q 1447.3 836.3 1448 838.5 L 1443.5 844 Q 1441.3 843.3 1442 845.5 L 1432.5 859 Q 1430.3 858.3 1431 860.5 L 1424 868.5 L 1422 875.5 L 1425 886.5 L 1429 894.5 L 1431 905.5 L 1434 910.5 L 1436 925.5 L 1441 942.5 L 1442 957.5 L 1444 959.5 L 1445 971.5 L 1446.5 973 L 1452 974 Q 1450.7 977.3 1455.5 976 L 1458 977 Q 1456.7 980.3 1461.5 979 L 1489.5 993 L 1492.5 993 L 1509.5 1002 L 1512.5 1002 L 1515.5 1005 L 1525.5 1008 L 1530.5 1012 L 1538.5 1014 L 1542.5 1018 L 1551.5 1020 L 1554.5 1023 L 1562.5 1025 L 1566.5 1029 L 1569.5 1029 L 1578.5 1034 L 1588.5 1037 L 1591.5 1040 L 1600.5 1043 L 1603.5 1046 L 1607.5 1046 Q 1608.3 1048.8 1612.5 1048 L 1615.5 1051 L 1620.5 1052 L 1629.5 1058 L 1637.5 1060 Q 1642.3 1064.7 1650.5 1066 L 1655.5 1070 L 1658.5 1070 L 1667.5 1075 L 1670.5 1075 L 1677.5 1080 L 1687.5 1083 L 1690.5 1086 Q 1699.1 1086.9 1703.5 1092 L 1706.5 1092 L 1718.5 1099 L 1726.5 1101 L 1735.5 1107 L 1738.5 1107 L 1746.5 1112 L 1756.5 1115 L 1759.5 1118 L 1762.5 1118 L 1783.5 1129 L 1789.5 1130 L 1798.5 1136 L 1801.5 1136 L 1809.5 1141 L 1813.5 1141 L 1816.5 1144 L 1828.5 1150 L 1838.5 1153 Q 1844.2 1158.3 1853.5 1160 L 1856.5 1163 L 1864.5 1165 L 1872.5 1170 L 1875.5 1170 L 1879.5 1174 L 1887.5 1176 L 1891.5 1179 L 1903 1183.5 Q 1902.2 1186.1 1905.5 1185 L 1913.5 1188 L 1916.5 1191 L 1925.5 1193 L 1934.5 1199 L 1938.5 1199 L 1946.5 1205 L 1949.5 1205 L 1977 1218 L 1977 1226.5 L 1976.5 1227 L 1937.5 1227 L 1936.5 1228 L 1874.5 1228 L 1873.5 1229 L 1805.5 1229 Q 1800.8 1232.8 1790.5 1231 L 1788.5 1230 L 1783.5 1231 L 1781.5 1230 L 1780.5 1231 L 1768.5 1231 L 1766.5 1231 L 1735.5 1232 L 1733.5 1231 L 1732.5 1232 L 1625.5 1232 L 1624.5 1233 L 1440.5 1234 L 1438.5 1236 L 1390.5 1236 L 1389 1237.5 Q 1371.4 1268.9 1348.5 1295 L 1346 1296.5 L 1333.5 1312 L 1330 1314.5 L 1327 1319.5 L 1330 1328.5 L 1330 1337.5 L 1332 1339.5 L 1336 1359.5 L 1338 1361.5 L 1338 1366.5 L 1341 1374.5 L 1342 1384.5 L 1347 1402.5 L 1347 1407.5 L 1349 1409.5 L 1352 1419.5 L 1353 1429.5 L 1357 1441.5 L 1357 1446.5 L 1360 1453.5 L 1364 1474.5 L 1369 1488.5 L 1369 1495.5 L 1371 1499.5 L 1371 1504.5 L 1374 1511.5 L 1378 1531.5 L 1383 1547.5 L 1386 1566.5 L 1388 1568.5 Q 1389.3 1583.2 1395 1593.5 L 1395 1600.5 Q 1397.7 1603.8 1397 1610.5 L 1400 1616.5 L 1401 1627.5 L 1407 1644.5 L 1409 1658.5 L 1412 1666.5 L 1413 1676.5 L 1418 1688.5 L 1418 1696.5 L 1423 1710.5 L 1424 1721.5 L 1427 1726.5 L 1427 1731.5 Q 1431 1738.5 1431 1749.5 L 1434 1754.5 L 1436 1770.5 L 1441 1784.5 L 1441 1792.5 L 1447 1808.5 L 1447 1814.5 L 1450 1821.5 L 1450 1827.5 L 1453 1835.5 L 1453 1840.5 L 1455 1842.5 L 1459 1858.5 L 1459 1863.5 L 1463 1873.5 L 1464 1885.5 Q 1468.2 1890 1468 1898 Q 1463.3 1899 1462 1895.5 L 1437 1867.5 L 1432 1859 Q 1428.2 1859.8 1427 1856.5 L 1424.5 1852 L 1422 1850.5 L 1419.5 1846 L 1417 1844.5 L 1417 1842.5 L 1405.5 1829 Q 1403.3 1829.8 1404 1827.5 L 1403 1825 L 1399 1822.5 L 1387 1806 L 1384 1804.5 Q 1365.7 1778.3 1344 1755.5 L 1342 1751 Q 1339.3 1752.1 1340 1749.5 L 1338 1746 L 1335 1744.5 L 1334 1741 Q 1331.3 1742.1 1332 1739.5 L 1324.5 1730 L 1322 1728.5 L 1319.5 1724 L 1317 1722.5 L 1314.5 1718 L 1312 1716.5 L 1310 1712.5 L 1298 1699.5 L 1298 1697 L 1293 1693.5 L 1274 1668 Q 1271.3 1669.1 1272 1666.5 L 1270 1663 L 1267 1661.5 L 1251 1642.5 L 1247.5 1636 L 1242 1631.5 L 1234 1621.5 L 1233 1618 L 1229 1615.5 L 1212.5 1594 Q 1210.3 1594.8 1211 1592.5 L 1202.5 1582 Q 1200.3 1582.8 1201 1580.5 L 1190.5 1568 L 1188 1566.5 L 1188 1564.5 L 1181 1555.5 L 1170 1543.5 L 1170 1541 L 1165 1537.5 L 1140.5 1507 Q 1138.3 1507.8 1139 1505.5 L 1135.5 1501 Q 1133.3 1501.8 1134 1499.5 L 1122.5 1485 Q 1120.3 1485.8 1121 1483.5 L 1114 1475.5 L 1114 1473 L 1109 1469.5 Q 1104 1466 1103 1460 Q 1100.3 1461.1 1101 1458.5 L 1085.5 1440 L 1075.5 1441 L 1071.5 1443 L 1054.5 1443 L 1053.5 1444 L 998.5 1444 L 997.5 1443 L 980.5 1443 L 975.5 1450 L 973 1451.5 L 969.5 1458 L 967 1459.5 L 966 1463 Q 963.3 1461.9 964 1464.5 L 927.5 1512 Q 924.9 1511.2 926 1514.5 L 916 1525.5 L 915 1528.5 L 886.5 1565 L 884 1566.5 L 881 1573 Q 878.3 1571.9 879 1574.5 L 870.5 1586 L 867 1588.5 L 845.5 1618 L 843 1619.5 L 840.5 1624 Q 837.9 1623.2 839 1626.5 L 835.5 1631 Q 833.3 1630.3 834 1632.5 L 827.5 1641 Q 825.3 1640.3 826 1642.5 L 825 1646 L 821 1648.5 L 820 1651.5 Q 796.1 1678.6 775.5 1709 L 772 1711.5 L 770 1717 L 766 1719.5 L 765 1723 L 761 1724 L 760 1728.5 L 731 1764.5 L 723.5 1776 Q 721.3 1775.3 722 1777.5 L 720 1781 L 717 1782.5 L 717 1785 Q 714.3 1783.9 715 1786.5 L 680 1830.5 L 669.5 1846 L 666 1848.5 L 666 1850.5 L 645.5 1876 Q 642.9 1875.2 644 1878.5 L 628.5 1898 Q 626.3 1897.3 627 1899.5 L 619 1911 Q 615.2 1912 614 1909.5 L 618 1896.5 L 619 1883.5 L 621 1875.5 L 623 1873.5 L 624 1861.5 L 625 1860.5 L 625 1851.5 L 628 1844.5 L 629 1832.5 L 632 1819.5 L 635 1813.5 L 635 1806.5 L 641 1782.5 L 641 1775.5 L 646 1760.5 L 648 1743.5 L 651 1738.5 L 653 1718.5 L 657 1708.5 L 660 1687.5 L 663 1681.5 L 665 1665.5 L 670 1645.5 L 670 1638.5 L 673 1632.5 L 674 1623.5 L 676 1619.5 L 676 1612.5 L 679 1603.5 L 682 1583.5 L 687 1566.5 L 688 1555.5 L 690 1553.5 L 691 1542.5 L 705 1482.5 L 708 1461.5 Q 710.7 1459.2 710 1453.5 L 712 1451.5 L 712 1444.5 L 715 1430.5 L 718 1425.5 L 718 1414.5 L 721 1400.5 L 723 1398.5 L 723 1392.5 L 727 1373.5 L 729 1371.5 L 729 1365.5 L 731 1359.5 L 732 1348.5 L 734 1346.5 L 735 1341.5 L 736 1329.5 L 731 1326 L 728.5 1322 L 723 1317.5 Q 723.8 1315.3 721.5 1316 L 692 1282.5 L 667.5 1247 L 561.5 1248 L 560.5 1249 L 431.5 1249 L 430.5 1250 L 375.5 1250 L 374.5 1251 L 306.5 1251 L 304.5 1253 L 125.5 1255 L 124.5 1254 L 79.5 1254 L 78 1252.5 Q 77.5 1248.5 80.5 1248 L 145.5 1216 L 152.5 1211 L 157.5 1210 L 167.5 1205 L 176.5 1199 L 183.5 1197 L 188.5 1193 L 197 1191 L 198.5 1188 L 203.5 1187 L 210.5 1182 L 230.5 1174 L 233.5 1171 L 252.5 1163 L 258.5 1158 L 268.5 1153 L 273.5 1152 L 288.5 1143 L 293.5 1142 Q 298.7 1136.2 308.5 1135 L 312.5 1131 L 321 1129 Q 319.9 1126.3 322.5 1127 L 369.5 1104 L 372.5 1101 L 383.5 1097 L 386.5 1094 L 393.5 1092 L 398.5 1088 L 406.5 1086 L 410.5 1082 L 417.5 1080 L 463.5 1057 L 468.5 1053 L 471.5 1053 L 478.5 1048 L 495.5 1041 L 502.5 1036 L 518.5 1030 L 524.5 1025 L 533 1023 Q 531.9 1020.3 534.5 1021 L 542.5 1018 L 546.5 1014 L 553.5 1012 L 563.5 1006 L 566.5 1006 L 570.5 1002 L 580.5 997 L 595 992 L 596.5 989 L 603.5 987 L 606 984.5 L 606 968.5 L 607 967.5 L 609 949.5 L 612 939.5 L 612 932.5 L 615 919.5 L 617 917.5 L 619 904.5 L 624 894.5 L 626 881.5 L 622.5 876 L 620 874.5 L 613 866.5 L 612 863 L 609 861.5 L 606 856 L 602 853.5 L 601 850.5 L 580.5 826 Q 577.9 826.8 579 823.5 Q 573 819.6 571 813 Q 568.3 814.1 569 811.5 L 562.5 804 L 560 802.5 L 559 799.5 L 548 787.5 L 545 781 L 541 778.5 L 510.5 741 Q 508.3 741.8 509 739.5 L 499.5 727 L 496 724.5 L 493.5 720 Q 491.3 720.8 492 718.5 L 489 713 L 484 709.5 L 478 701.5 L 478 699 L 474 697.5 L 442.5 658 Q 440.3 658.8 441 656.5 L 437.5 652 Q 434.9 652.8 436 649.5 L 421.5 632 L 418 629.5 L 394 598 L 391 596.5 L 375 575 Q 372 576.3 373 572.5 L 372 570 L 368 569 L 365.5 564 L 362 561.5 L 359.5 557 L 357 555.5 L 347.5 542 L 345 540.5 L 344 537 Q 341.3 538.1 342 535.5 L 315.5 503 L 313 501.5 L 309.5 496 Q 307.3 496.8 308 494.5 L 295 479.5 L 293 475 L 290 473.5 Q 290.5 469.5 287.5 469 L 285 467.5 Q 277.6 454.4 267 444.5 L 266 441 L 262 438.5 L 252 426.5 L 250 420 L 257.5 421 Q 264.3 426.7 274.5 429 L 277.5 432 L 280.5 432 Q 286.9 437.1 296.5 439 L 313.5 448 L 321.5 450 L 326.5 454 L 334.5 456 L 338.5 460 L 346.5 462 L 349.5 465 L 357.5 467 L 362.5 471 L 367.5 472 L 373.5 476 L 386 480.5 Q 385.3 482.8 387.5 482 L 393.5 485 L 396.5 485 L 404.5 490 L 408.5 490 L 416.5 496 L 419.5 496 L 436.5 505 L 446.5 508 L 451.5 512 L 459.5 514 L 462.5 517 L 465.5 517 L 475.5 523 L 478.5 523 L 486.5 528 L 489.5 528 L 507.5 538 L 510.5 538 L 518.5 543 L 528.5 546 L 537.5 552 L 542 552 Q 540.9 554.7 543.5 554 L 564.5 563 L 569.5 567 L 573.5 567 L 581.5 572 L 584.5 572 L 593.5 578 L 596.5 578 L 600.5 581 L 610.5 584 L 615.5 588 L 618.5 588 L 627 592 Q 625.7 595.3 630.5 594 L 639.5 599 L 650 602 L 651.5 605 L 654.5 605 L 669.5 613 L 675 614 Q 673.8 617 677.5 616 L 681.5 619 L 685.5 619 L 693.5 624 L 698.5 625 L 706.5 630 L 709.5 630 L 714.5 634 L 717.5 634 L 726.5 639 L 729.5 639 L 732.5 642 L 744.5 648 L 752.5 650 L 773.5 661 L 779.5 662 L 783.5 666 L 793.5 669 L 825.5 649 L 843.5 640 L 881.5 624 L 887 623 L 892 601.5 L 894 585.5 L 898 574.5 L 900 558.5 L 902 556.5 L 904 540.5 L 910 516.5 L 911 505.5 L 914 499.5 L 918 473.5 L 927 437.5 L 928 427.5 L 930 424.5 L 930 417.5 L 932 412.5 L 934 398.5 L 942 367.5 L 944 353.5 L 946 349.5 L 946 341.5 L 948 336.5 L 950 323.5 L 952 321.5 L 953 310.5 L 958 292.5 L 959 279.5 Q 961.7 277.2 961 271.5 L 963 269.5 L 963 263.5 L 966 248.5 L 969 243.5 L 971 223.5 L 974 217.5 Q 974.7 198.7 981 185.5 L 981 178.5 L 987 155.5 L 987 147.5 Q 989.7 145.2 989 139.5 L 991 137.5 L 994 116.5 L 997 110.5 L 999 91.5 L 1002 85.5 L 1006 59.5 L 1008 57.5 L 1010 45 L 1012.5 44 Z M 1014 130 L 1012 133 L 1011 144 L 1000 190 L 999 199 L 996 208 L 996 215 Q 993 220 993 229 L 990 235 L 989 247 L 984 264 L 983 277 L 979 288 L 978 299 L 975 312 L 972 318 L 971 334 L 968 340 L 967 352 L 964 365 L 961 371 L 961 378 L 955 402 L 955 409 Q 952 411 953 418 L 950 424 L 948 441 L 945 446 L 943 466 L 939 476 L 936 497 L 933 503 L 932 515 L 926 539 L 926 546 L 923 552 L 914 602 L 912 605 L 910 614 L 911 616 L 913 614 L 930 611 L 938 608 L 964 605 L 967 603 L 982 602 L 983 601 L 1005 601 L 1006 600 L 1070 601 L 1071 602 L 1085 603 L 1088 605 L 1094 605 L 1100 607 L 1114 608 L 1132 613 L 1127 597 L 1125 582 L 1123 580 Q 1121 566 1117 555 L 1116 543 L 1110 528 L 1109 516 L 1105 508 L 1103 492 L 1100 487 Q 1101 480 1098 477 L 1098 471 L 1092 455 L 1092 447 L 1087 432 L 1087 426 L 1084 421 L 1084 416 Q 1080 409 1080 399 L 1077 393 L 1075 375 L 1073 373 L 1069 359 L 1069 354 L 1067 352 L 1067 347 Q 1063 340 1063 329 L 1060 322 L 1058 308 L 1053 295 L 1050 275 L 1045 261 L 1044 252 L 1037 228 L 1036 217 L 1033 211 L 1033 206 L 1028 192 L 1027 182 L 1020 157 L 1020 152 L 1016 142 L 1016 137 L 1014 130 Z M 1711 458 Q 1705 463 1697 464 L 1691 469 Q 1683 469 1681 474 L 1670 478 L 1667 481 L 1657 486 L 1644 491 L 1641 494 L 1608 509 L 1603 513 L 1588 519 L 1579 525 L 1566 530 L 1549 540 L 1542 542 L 1534 547 L 1531 547 L 1529 550 L 1510 558 L 1503 563 L 1496 565 L 1493 568 L 1488 569 L 1471 579 L 1452 587 L 1430 598 L 1423 603 L 1408 609 L 1405 612 L 1384 622 Q 1380 621 1381 624 L 1356 635 L 1351 639 L 1319 654 Q 1316 653 1317 656 L 1297 665 Q 1293 664 1294 667 L 1281 674 L 1274 676 L 1272 679 L 1289 691 Q 1291 690 1290 693 L 1296 697 Q 1298 696 1297 699 L 1310 708 L 1311 711 L 1316 714 L 1318 718 L 1320 718 L 1330 729 Q 1329 731 1332 730 L 1335 735 L 1339 737 L 1347 749 L 1350 750 L 1369 775 L 1369 777 L 1381 793 L 1394 814 L 1410 847 L 1414 846 L 1440 811 Q 1439 808 1442 809 L 1446 803 L 1449 801 L 1450 798 L 1462 782 L 1466 779 L 1468 774 L 1471 772 L 1509 721 L 1522 706 L 1522 704 L 1525 702 L 1544 676 L 1549 672 L 1550 668 L 1562 654 L 1563 651 L 1566 649 L 1574 638 Q 1573 635 1576 636 L 1605 597 L 1608 595 L 1635 558 L 1638 556 L 1640 552 L 1644 549 L 1657 530 L 1660 528 L 1662 523 L 1666 520 L 1667 517 L 1676 506 Q 1675 503 1678 504 L 1680 501 Q 1679 498 1682 499 L 1685 495 Q 1684 492 1687 493 L 1691 487 Q 1690 484 1693 485 L 1712 460 Q 1713 457 1711 458 Z M 327 479 L 331 487 L 367 530 Q 369 529 368 532 L 370 532 L 374 540 L 379 543 L 381 548 L 384 549 L 387 555 Q 386 557 389 556 L 404 575 Q 403 578 406 577 L 415 589 Q 414 591 417 590 L 443 623 Q 442 625 445 624 L 453 636 L 456 637 L 459 643 L 482 671 L 485 672 L 491 682 L 496 685 L 509 704 L 513 706 L 516 712 Q 515 714 518 713 L 521 719 L 527 724 Q 526 727 529 726 L 564 771 L 568 773 L 575 783 Q 574 785 577 784 L 579 788 Q 578 790 581 789 L 581 791 L 583 791 L 583 794 L 586 795 L 587 799 L 591 801 L 592 805 L 616 833 Q 615 835 618 834 L 621 839 Q 620 841 623 840 L 626 846 Q 625 848 628 847 L 635 856 Q 634 858 637 857 Q 640 845 647 836 L 647 833 L 651 828 L 654 820 L 665 801 L 686 770 L 706 745 L 712 740 L 722 728 Q 724 729 723 727 L 728 723 L 734 716 Q 736 717 735 715 L 745 706 Q 747 707 746 705 L 752 701 L 754 697 L 758 695 Q 760 696 759 694 L 769 686 Q 771 687 770 685 L 768 682 L 760 680 L 753 675 L 747 674 L 745 671 L 737 669 L 732 665 L 724 663 L 718 659 L 709 657 L 707 654 L 701 651 L 697 651 L 690 646 L 686 646 L 682 642 L 674 640 L 669 636 L 661 634 L 645 625 L 635 622 L 625 616 L 622 616 L 619 613 L 616 613 L 610 609 L 605 608 L 579 595 Q 575 596 576 593 L 572 593 L 563 587 L 559 587 L 556 584 Q 551 585 552 582 L 542 579 L 539 576 L 534 575 L 524 569 L 516 567 L 513 564 L 509 564 L 503 560 Q 500 561 501 558 L 497 558 L 482 550 Q 477 551 478 549 L 464 541 L 458 540 L 450 535 L 447 535 L 438 529 L 428 526 L 425 523 L 415 520 L 413 517 L 409 517 L 401 512 L 398 512 L 394 509 L 385 506 L 382 503 L 376 502 L 368 497 L 365 497 L 362 494 L 359 494 L 356 491 L 352 491 L 349 488 L 342 486 L 332 480 L 327 479 Z M 1010 619 L 1009 620 L 995 620 L 994 621 L 976 622 L 975 623 L 965 623 Q 958 626 949 626 L 942 629 L 936 629 L 917 635 L 912 635 L 905 637 L 904 648 L 902 652 L 900 666 L 897 675 L 897 681 L 895 684 L 893 696 L 900 695 L 909 690 L 916 689 L 929 684 L 935 684 L 948 679 L 958 677 L 965 677 L 968 675 Q 972 676 974 674 L 986 674 L 997 672 L 1055 672 L 1066 674 L 1078 674 Q 1079 676 1084 675 L 1087 677 L 1094 677 L 1112 681 L 1114 683 L 1126 685 L 1136 689 L 1146 691 L 1151 694 L 1149 687 L 1148 677 L 1143 662 L 1142 651 L 1139 645 L 1138 635 L 1116 629 L 1106 628 L 1103 626 L 1087 623 L 1077 623 L 1068 621 L 1059 621 L 1058 620 L 1043 620 L 1042 619 L 1010 619 Z M 1162 643 L 1163 651 L 1165 653 L 1167 668 L 1172 684 L 1173 693 L 1176 700 L 1197 689 L 1212 683 L 1217 679 L 1220 679 L 1225 675 Q 1228 676 1227 673 L 1218 669 L 1210 663 L 1194 657 L 1177 648 L 1168 646 L 1162 643 Z M 878 647 Q 872 652 863 653 L 860 656 Q 851 657 847 662 L 840 664 L 825 674 L 819 676 L 816 680 L 820 683 L 830 686 L 839 691 Q 844 689 843 693 L 846 695 L 855 697 L 856 700 Q 864 700 869 705 L 870 704 L 872 691 L 874 689 L 877 668 L 881 654 L 881 647 L 878 647 Z M 1251 688 L 1208 710 Q 1204 709 1205 712 L 1197 716 Q 1235 736 1265 764 L 1266 767 L 1268 767 L 1277 777 Q 1276 779 1279 778 L 1311 817 L 1318 829 L 1322 833 L 1336 858 Q 1335 861 1338 860 L 1342 869 L 1342 872 L 1347 880 Q 1345 885 1349 884 L 1356 902 L 1358 912 L 1362 913 L 1364 909 L 1367 907 L 1369 903 Q 1368 900 1371 901 L 1377 893 Q 1376 889 1379 890 L 1397 868 Q 1384 833 1365 806 Q 1366 803 1363 804 L 1361 799 L 1349 782 L 1346 780 L 1344 776 L 1327 755 L 1323 752 L 1316 743 L 1313 740 L 1303 731 L 1303 729 L 1296 724 L 1274 704 L 1251 688 Z M 1019 690 L 1018 691 L 1002 691 L 1001 692 L 991 692 L 990 693 L 979 693 L 977 695 L 972 695 L 956 699 L 950 699 L 947 701 L 939 702 L 935 704 L 930 704 L 928 706 L 917 710 L 913 710 L 909 713 L 900 715 L 896 718 L 905 720 L 909 724 L 912 724 Q 918 729 928 731 L 933 735 L 949 741 L 966 750 L 969 750 L 972 753 L 986 758 L 989 761 L 992 761 L 1002 767 L 1010 769 L 1023 776 L 1034 772 L 1039 768 L 1045 767 L 1048 764 L 1082 748 L 1085 745 L 1106 736 L 1112 731 L 1115 731 L 1128 724 L 1131 724 L 1136 719 L 1139 719 L 1146 715 L 1139 710 L 1135 710 L 1124 706 L 1122 704 L 1105 701 L 1103 699 L 1096 699 L 1076 695 L 1073 693 L 1062 693 L 1061 692 L 1051 692 L 1050 691 L 1034 691 L 1033 690 L 1019 690 Z M 791 695 L 779 704 Q 776 703 777 706 L 758 721 L 756 724 L 746 732 L 744 735 L 740 738 Q 715 762 696 791 Q 697 793 694 792 L 666 840 L 651 874 L 652 877 Q 651 879 654 878 L 655 882 L 659 884 L 666 895 L 669 896 L 690 922 L 699 892 L 701 890 L 706 876 L 715 858 L 718 855 L 719 850 L 746 809 L 760 793 Q 759 790 762 791 L 765 787 Q 764 784 767 785 L 775 776 L 780 772 L 782 768 L 816 740 L 818 740 L 830 730 L 847 720 L 843 717 Q 839 718 840 715 L 836 715 L 828 710 L 823 709 L 813 703 L 810 703 L 802 698 Q 797 699 796 697 Q 797 694 791 695 Z M 1184 732 L 1184 741 L 1188 749 L 1190 757 L 1190 764 L 1196 781 L 1196 786 L 1199 793 Q 1198 800 1201 803 L 1201 809 L 1207 825 L 1207 833 L 1210 840 L 1213 854 Q 1211 859 1215 858 L 1216 865 L 1223 869 L 1226 869 L 1234 874 L 1237 874 L 1240 877 L 1243 877 L 1266 889 L 1269 889 L 1278 895 L 1281 895 L 1299 903 L 1302 906 L 1312 909 L 1315 912 L 1323 914 L 1328 918 L 1332 918 L 1341 924 L 1342 924 L 1327 884 L 1316 865 L 1316 862 L 1298 834 L 1271 800 L 1267 797 L 1267 796 L 1252 780 Q 1249 781 1250 779 L 1221 754 L 1205 743 L 1184 732 Z M 1161 733 L 1131 748 L 1128 751 L 1123 752 L 1108 759 L 1103 763 L 1091 769 L 1088 769 L 1081 774 L 1067 781 L 1064 781 L 1050 789 L 1063 795 L 1066 795 L 1076 801 L 1081 802 L 1086 806 L 1092 807 L 1097 811 L 1105 813 L 1109 817 Q 1114 815 1113 819 L 1117 819 Q 1121 823 1129 824 L 1141 831 Q 1145 830 1144 833 L 1155 836 L 1158 839 L 1163 840 L 1165 842 L 1168 842 L 1169 845 L 1176 846 L 1184 851 L 1190 853 L 1186 838 L 1186 833 L 1183 827 Q 1184 820 1181 817 L 1181 809 L 1179 807 L 1173 786 L 1173 781 L 1170 772 L 1170 768 L 1165 752 L 1164 742 L 1161 733 Z M 862 734 L 831 754 L 804 776 Q 782 795 765 819 L 761 821 L 761 824 L 750 838 L 742 853 L 738 857 L 736 863 L 733 866 L 727 878 L 726 883 L 720 893 L 720 896 L 715 906 L 715 910 L 711 917 L 708 931 L 706 934 L 707 935 L 743 917 Q 746 918 745 916 L 764 906 L 767 906 L 771 902 L 778 900 L 797 889 L 806 886 L 820 879 L 823 876 L 835 871 L 838 851 L 840 848 L 841 836 L 844 827 L 844 823 L 846 821 L 848 804 L 852 791 L 852 784 L 854 774 L 857 769 L 861 743 L 864 738 Q 866 733 862 734 Z M 884 738 L 878 763 L 878 770 L 876 780 L 873 786 L 873 793 L 870 807 L 867 813 L 865 831 L 862 839 L 861 850 L 859 856 L 860 859 L 911 832 L 918 830 L 927 824 L 930 824 L 938 819 L 943 818 L 949 813 L 967 806 L 973 801 L 976 801 Q 982 794 994 792 L 997 789 L 961 773 L 956 769 L 948 767 L 940 762 L 937 762 L 932 758 L 916 752 L 895 741 L 884 738 Z M 1024 802 L 1016 806 L 1016 807 L 1034 807 L 1024 802 Z M 1015 826 L 1014 827 L 999 827 L 997 829 L 992 829 L 983 832 L 970 834 L 936 848 Q 907 863 886 886 Q 883 885 884 888 L 878 892 L 877 896 L 867 907 L 856 924 L 844 948 Q 843 956 839 961 L 837 974 L 833 984 L 831 1009 L 830 1010 L 830 1035 L 832 1046 L 832 1056 L 838 1075 L 839 1084 L 841 1086 L 844 1097 L 856 1121 L 869 1140 L 878 1150 L 878 1152 L 884 1157 Q 883 1159 886 1158 L 889 1163 L 919 1186 L 951 1203 L 972 1210 L 980 1211 L 986 1214 L 996 1216 L 1008 1216 L 1009 1217 L 1043 1217 L 1044 1216 L 1056 1216 L 1070 1213 L 1077 1210 L 1081 1210 L 1102 1202 Q 1105 1203 1104 1200 L 1125 1191 L 1155 1169 Q 1175 1151 1190 1128 Q 1189 1125 1192 1126 L 1209 1092 L 1212 1079 L 1214 1077 L 1218 1054 L 1220 1052 Q 1219 1047 1221 1046 L 1221 999 L 1215 977 L 1215 971 Q 1209 964 1209 952 L 1206 949 L 1204 941 L 1200 936 L 1192 919 L 1175 896 L 1168 889 Q 1169 886 1167 887 L 1164 883 L 1136 860 L 1118 849 L 1091 837 L 1069 831 L 1055 829 L 1053 827 L 1015 826 Z M 1185 876 L 1187 878 Q 1194 885 1199 895 L 1200 895 L 1198 889 L 1198 884 L 1189 877 L 1185 876 Z M 858 885 L 852 887 L 851 892 L 852 895 L 853 892 L 857 889 L 859 886 L 858 885 Z M 1407 892 L 1401 901 L 1397 904 Q 1393 913 1386 918 Q 1387 921 1385 920 L 1371 938 L 1378 941 L 1381 941 L 1391 947 L 1394 947 L 1403 953 L 1407 953 L 1411 956 L 1414 956 L 1422 960 L 1423 961 L 1421 940 Q 1415 930 1415 916 L 1413 914 L 1407 892 Z M 1224 894 L 1224 896 L 1224 906 L 1226 906 L 1230 921 L 1230 926 L 1232 928 L 1232 933 Q 1236 942 1237 955 L 1240 962 L 1241 972 L 1243 975 L 1246 990 L 1248 994 L 1248 1000 L 1251 1008 L 1251 1013 L 1254 1018 L 1255 1029 L 1260 1043 L 1263 1041 L 1309 981 Q 1308 978 1311 979 L 1312 977 Q 1311 974 1314 975 L 1322 963 L 1325 961 L 1332 952 L 1334 946 Q 1333 943 1330 944 L 1327 941 Q 1321 943 1322 939 L 1319 939 L 1310 933 L 1300 930 L 1298 927 L 1289 925 L 1284 921 L 1280 921 L 1271 915 L 1263 913 L 1252 907 Q 1248 908 1249 905 L 1238 901 L 1234 898 L 1230 898 L 1224 894 Z M 829 899 L 803 913 L 794 916 L 789 920 L 784 921 L 778 926 L 772 927 L 760 933 L 754 938 L 748 939 L 729 950 L 717 954 L 732 975 L 735 976 L 744 989 Q 743 991 746 990 L 761 1010 Q 760 1012 763 1011 L 767 1016 L 767 1018 L 771 1020 L 796 1052 L 797 1051 L 797 1045 L 805 1011 L 805 1006 L 807 1003 Q 806 996 809 994 L 813 968 L 823 928 L 825 911 L 827 903 L 829 901 L 829 899 Z M 642 901 L 636 923 L 633 928 L 633 934 L 629 954 L 627 956 L 626 975 L 656 961 L 667 954 L 676 951 L 680 948 L 679 946 Q 680 943 678 944 L 665 930 Q 666 926 663 927 L 642 901 Z M 1372 962 L 1374 979 L 1375 1001 L 1377 1004 L 1377 1041 L 1375 1044 L 1374 1065 L 1371 1079 L 1371 1088 L 1369 1098 L 1356 1143 L 1338 1183 Q 1339 1185 1336 1184 L 1336 1187 L 1330 1196 L 1328 1202 L 1318 1216 L 1378 1216 L 1382 1211 L 1395 1184 L 1409 1147 L 1412 1133 L 1415 1129 L 1415 1123 L 1418 1111 L 1421 1105 L 1422 1089 L 1424 1082 L 1424 1077 L 1426 1073 L 1426 1059 L 1427 1058 L 1427 1047 L 1428 1046 L 1428 999 L 1427 998 L 1427 988 L 1406 979 L 1402 976 L 1399 976 L 1372 962 Z M 1351 965 L 1347 967 L 1347 970 L 1339 980 Q 1340 982 1338 981 L 1286 1048 Q 1287 1050 1284 1049 L 1283 1054 L 1281 1055 L 1266 1074 L 1272 1091 L 1273 1102 L 1277 1114 L 1279 1129 L 1283 1138 L 1285 1151 L 1289 1160 L 1289 1168 L 1295 1187 L 1296 1198 L 1299 1203 Q 1297 1207 1301 1206 L 1315 1184 L 1323 1166 L 1326 1163 L 1333 1143 L 1338 1134 L 1339 1127 L 1344 1115 L 1345 1106 L 1350 1092 L 1352 1074 L 1354 1072 Q 1353 1067 1355 1066 L 1355 1053 L 1356 1052 L 1356 993 L 1355 992 L 1354 973 L 1352 970 Q 1354 964 1351 965 Z M 699 970 L 697 986 L 696 987 L 696 996 L 694 999 L 694 1014 L 693 1015 L 694 1047 L 696 1049 L 698 1076 L 700 1082 L 700 1087 L 703 1094 L 705 1108 L 709 1118 L 709 1122 L 714 1132 L 715 1139 L 720 1149 L 721 1154 L 731 1172 L 733 1179 L 736 1182 L 750 1207 L 760 1219 L 764 1205 L 765 1193 L 768 1188 L 772 1162 L 775 1153 L 776 1141 L 779 1135 L 783 1110 L 787 1096 L 787 1089 L 790 1082 L 782 1072 Q 783 1069 780 1070 L 775 1064 L 775 1062 L 773 1060 L 770 1057 Q 771 1054 768 1055 L 757 1042 L 757 1040 L 752 1036 Q 753 1032 751 1033 L 724 1002 L 723 999 L 720 997 L 718 993 L 715 991 L 712 986 L 709 983 L 706 979 Q 707 976 705 977 L 699 970 Z M 675 976 L 641 994 L 638 994 L 628 999 L 622 1006 L 622 1038 L 624 1042 L 624 1055 L 626 1066 L 627 1089 L 629 1091 L 631 1105 L 633 1110 L 633 1116 L 636 1122 L 640 1141 L 644 1150 L 644 1154 L 650 1166 L 654 1179 L 666 1205 L 678 1226 L 687 1226 L 688 1225 L 739 1225 L 725 1205 L 718 1190 L 715 1187 L 706 1169 L 702 1157 L 699 1153 L 691 1130 L 690 1123 L 688 1120 L 684 1105 L 684 1101 L 682 1098 L 679 1081 L 677 1061 L 676 1060 L 676 1034 L 675 1033 L 676 985 L 677 984 L 677 977 L 675 976 Z M 1449 998 L 1447 1061 L 1446 1062 L 1446 1071 L 1444 1079 L 1444 1085 L 1442 1087 Q 1443 1091 1441 1093 L 1440 1107 L 1436 1119 L 1434 1134 L 1431 1139 L 1427 1156 L 1425 1158 L 1418 1181 L 1402 1215 L 1434 1215 L 1435 1214 L 1495 1214 L 1496 1213 L 1565 1213 L 1568 1211 L 1751 1210 L 1752 1209 L 1875 1208 L 1876 1207 L 1898 1207 L 1883 1199 Q 1879 1200 1880 1197 L 1877 1197 L 1847 1182 L 1844 1182 L 1835 1177 L 1832 1177 L 1830 1175 L 1819 1170 L 1817 1167 L 1812 1167 L 1805 1162 L 1801 1162 L 1794 1159 L 1790 1155 Q 1785 1156 1784 1153 Q 1779 1154 1780 1151 L 1775 1150 L 1773 1148 L 1768 1148 L 1767 1144 L 1763 1144 L 1755 1139 L 1746 1137 L 1742 1133 L 1734 1131 L 1729 1127 L 1726 1127 L 1720 1124 Q 1716 1125 1717 1122 L 1707 1119 L 1703 1115 L 1695 1113 Q 1691 1109 1684 1108 L 1679 1104 L 1665 1099 L 1659 1095 L 1656 1095 L 1653 1092 L 1650 1092 L 1635 1084 L 1630 1083 L 1623 1078 L 1620 1078 L 1596 1066 L 1593 1066 L 1590 1063 L 1581 1060 L 1579 1058 L 1576 1058 L 1566 1052 L 1563 1052 L 1561 1049 L 1558 1049 L 1538 1039 L 1530 1037 L 1528 1034 L 1520 1032 L 1515 1028 L 1507 1026 L 1503 1022 L 1493 1019 Q 1490 1020 1491 1017 L 1481 1014 L 1478 1011 Q 1469 1010 1465 1005 L 1462 1005 L 1460 1003 L 1457 1003 L 1449 998 Z M 602 1013 L 270 1179 Q 266 1178 267 1181 L 258 1184 L 253 1188 L 189 1220 L 186 1220 L 179 1225 L 164 1232 L 164 1233 L 184 1233 L 185 1232 L 307 1232 L 308 1231 L 369 1231 L 370 1230 L 439 1230 L 442 1228 L 564 1228 L 565 1227 L 625 1227 L 626 1226 L 655 1226 L 641 1199 L 634 1181 Q 635 1177 632 1178 L 628 1164 L 625 1159 L 623 1148 L 619 1140 L 617 1127 L 615 1125 L 613 1117 L 612 1105 L 607 1083 L 606 1059 L 604 1057 L 604 1043 L 603 1042 L 603 1014 L 602 1013 Z M 1239 1053 L 1237 1059 L 1237 1066 L 1235 1072 L 1236 1076 L 1243 1067 L 1239 1058 L 1239 1053 Z M 815 1066 L 813 1073 L 816 1075 L 815 1066 Z M 1250 1096 L 1243 1104 Q 1244 1106 1241 1105 L 1235 1116 L 1232 1118 L 1228 1124 Q 1229 1126 1227 1125 L 1210 1146 Q 1211 1149 1209 1148 L 1204 1154 Q 1205 1156 1203 1155 L 1200 1161 L 1197 1162 L 1186 1177 Q 1187 1179 1184 1178 L 1178 1189 L 1168 1200 L 1155 1218 L 1174 1218 L 1175 1219 L 1176 1218 L 1193 1218 L 1194 1217 L 1248 1217 L 1249 1216 L 1278 1216 L 1276 1201 L 1274 1199 L 1272 1186 L 1270 1183 L 1270 1177 L 1268 1174 L 1268 1170 L 1263 1155 L 1262 1144 L 1259 1132 L 1256 1126 L 1254 1111 L 1251 1105 L 1250 1096 Z M 806 1102 L 806 1107 L 803 1116 L 802 1128 L 799 1134 L 798 1146 L 792 1169 L 791 1180 L 787 1191 L 785 1207 L 781 1224 L 805 1224 L 806 1223 L 874 1223 L 875 1222 L 905 1222 L 904 1220 Q 905 1217 903 1218 L 861 1167 L 858 1165 L 857 1163 Q 858 1160 856 1161 Q 853 1161 853 1157 L 850 1154 L 842 1146 L 840 1141 L 838 1139 L 835 1135 L 833 1133 L 810 1105 L 806 1102 Z M 1129 1211 L 1114 1219 L 1125 1219 L 1130 1213 Q 1131 1210 1129 1211 Z M 933 1217 L 933 1220 L 937 1222 L 942 1221 L 933 1217 Z M 1315 1237 L 1314 1238 L 1307 1238 L 1307 1243 L 1312 1255 L 1313 1267 L 1316 1274 L 1319 1293 L 1321 1295 L 1325 1292 L 1349 1263 L 1366 1238 L 1315 1237 Z M 1184 1238 L 1183 1239 L 1139 1239 L 1137 1242 L 1132 1245 L 1132 1248 L 1124 1257 L 1124 1259 L 1122 1260 L 1109 1277 Q 1110 1279 1107 1278 L 1095 1296 L 1091 1298 L 1089 1304 L 1084 1307 L 1083 1311 Q 1084 1313 1081 1312 L 1072 1325 Q 1073 1327 1070 1326 L 1054 1349 L 1052 1352 L 1070 1351 L 1092 1347 L 1095 1345 L 1100 1345 L 1116 1341 L 1123 1338 L 1133 1336 L 1138 1333 L 1141 1333 L 1150 1328 L 1167 1322 L 1192 1309 L 1206 1299 L 1210 1298 L 1215 1293 L 1233 1281 L 1234 1279 L 1246 1270 L 1249 1266 L 1259 1258 L 1265 1250 L 1269 1247 L 1276 1239 L 1184 1238 Z M 1067 1240 L 1065 1242 L 997 1242 L 996 1243 L 954 1244 L 973 1268 Q 972 1270 975 1269 L 978 1274 L 982 1276 L 985 1282 Q 984 1284 987 1283 L 990 1289 L 994 1291 L 997 1297 Q 996 1299 999 1298 L 1002 1303 Q 1001 1305 1004 1304 Q 1008 1306 1008 1311 L 1012 1314 Q 1011 1317 1014 1316 L 1015 1319 L 1018 1320 L 1024 1329 Q 1023 1331 1026 1330 L 1029 1336 L 1033 1338 L 1060 1302 L 1063 1300 L 1065 1295 L 1068 1293 L 1078 1279 Q 1077 1276 1080 1277 L 1084 1272 Q 1083 1269 1086 1270 L 1099 1251 L 1104 1247 L 1105 1243 L 1108 1241 L 1067 1240 Z M 819 1244 L 818 1245 L 782 1245 L 783 1247 Q 785 1246 784 1249 L 802 1265 L 803 1268 L 815 1277 Q 817 1276 816 1279 L 835 1293 L 837 1293 L 841 1297 L 862 1310 L 891 1325 Q 900 1326 906 1331 L 917 1334 L 925 1338 L 947 1343 L 951 1345 L 957 1345 L 960 1347 L 982 1351 L 1008 1352 L 1009 1353 L 1014 1353 L 987 1322 L 986 1319 L 984 1317 L 982 1314 L 978 1311 L 970 1299 L 966 1296 L 963 1292 Q 964 1289 962 1290 L 958 1286 Q 959 1283 957 1284 L 941 1264 L 936 1260 L 935 1257 L 933 1255 L 927 1247 L 925 1244 L 819 1244 Z M 749 1245 L 748 1246 L 692 1246 L 694 1251 Q 693 1253 696 1252 Q 710 1274 727 1293 L 730 1294 L 730 1296 L 742 1307 L 744 1294 L 746 1290 L 746 1283 L 748 1273 L 752 1263 L 753 1250 L 755 1246 L 749 1245 Z M 1289 1255 L 1285 1259 Q 1286 1261 1284 1260 L 1280 1265 L 1271 1273 L 1269 1276 L 1266 1278 L 1263 1282 L 1253 1290 Q 1250 1289 1251 1292 L 1235 1305 L 1211 1321 L 1183 1337 L 1160 1346 L 1156 1349 L 1129 1357 L 1127 1359 L 1107 1363 L 1100 1366 L 1089 1366 L 1083 1368 L 1078 1368 L 1075 1370 L 1060 1371 Q 1064 1381 1072 1387 Q 1071 1389 1074 1388 L 1078 1396 L 1082 1398 L 1098 1418 L 1113 1416 L 1127 1411 L 1136 1410 L 1148 1405 L 1156 1404 Q 1163 1399 1174 1397 L 1178 1394 L 1186 1392 L 1195 1387 L 1198 1387 L 1201 1384 L 1221 1375 L 1247 1358 L 1249 1358 L 1254 1353 L 1275 1339 L 1303 1314 L 1298 1296 L 1298 1291 L 1296 1289 L 1294 1282 L 1292 1267 L 1290 1264 L 1289 1255 Z M 773 1266 L 767 1287 L 764 1306 L 761 1311 Q 762 1319 759 1324 L 780 1341 L 812 1364 L 818 1366 L 831 1375 L 855 1387 L 866 1392 L 872 1393 L 880 1398 L 889 1400 L 896 1404 L 900 1404 L 913 1409 L 925 1411 L 930 1414 L 969 1421 L 988 1395 L 992 1392 L 993 1389 L 1002 1378 Q 1001 1375 1004 1376 L 1005 1372 L 984 1371 L 963 1366 L 953 1366 L 937 1361 L 929 1360 L 918 1355 L 914 1355 L 894 1348 L 890 1345 L 883 1343 L 877 1339 L 872 1338 L 860 1332 L 857 1329 L 848 1325 L 826 1311 L 816 1303 Q 813 1304 814 1301 L 803 1293 Q 800 1294 801 1292 L 784 1277 L 782 1275 L 779 1272 L 775 1267 L 773 1266 Z M 1309 1336 L 1274 1365 L 1242 1385 Q 1239 1384 1240 1387 L 1221 1396 L 1218 1399 L 1206 1405 L 1198 1407 L 1190 1412 L 1184 1413 L 1178 1417 L 1172 1418 L 1138 1430 L 1134 1430 L 1112 1436 L 1118 1444 L 1120 1447 L 1123 1448 L 1125 1453 L 1128 1454 L 1132 1462 L 1137 1465 L 1138 1469 L 1155 1488 L 1157 1492 L 1160 1493 Q 1181 1523 1206 1550 L 1207 1553 L 1210 1554 L 1212 1559 L 1216 1561 L 1218 1566 L 1221 1567 L 1224 1572 L 1224 1574 L 1230 1579 Q 1229 1582 1232 1581 L 1253 1609 L 1257 1611 L 1260 1616 Q 1259 1618 1262 1617 L 1263 1621 L 1266 1622 L 1267 1626 L 1271 1628 L 1272 1632 L 1275 1633 L 1281 1642 Q 1280 1644 1283 1643 L 1283 1645 L 1285 1645 L 1290 1654 L 1293 1655 L 1305 1671 Q 1304 1673 1307 1672 L 1336 1710 L 1339 1711 L 1341 1716 L 1344 1717 L 1347 1722 Q 1346 1724 1349 1723 L 1349 1726 L 1351 1726 L 1354 1732 L 1357 1733 L 1358 1737 L 1361 1738 L 1369 1750 L 1372 1751 L 1402 1790 L 1405 1791 L 1414 1804 Q 1413 1806 1416 1805 L 1418 1809 L 1421 1810 L 1424 1817 L 1426 1818 L 1424 1814 L 1421 1798 Q 1423 1791 1419 1792 L 1416 1781 L 1415 1770 L 1413 1768 L 1411 1761 L 1408 1742 L 1399 1712 L 1399 1707 L 1393 1682 L 1391 1680 L 1391 1673 L 1383 1647 L 1382 1635 L 1380 1633 Q 1379 1619 1374 1611 L 1373 1601 L 1368 1584 L 1368 1577 L 1365 1566 L 1362 1561 L 1359 1542 L 1356 1535 L 1355 1524 L 1351 1516 L 1350 1504 L 1344 1488 L 1343 1476 L 1338 1461 L 1337 1452 L 1334 1446 L 1332 1431 L 1327 1417 L 1327 1408 L 1322 1396 L 1320 1384 L 1318 1381 L 1318 1376 L 1315 1365 L 1315 1359 L 1311 1351 L 1309 1336 Z M 756 1347 Q 752 1353 752 1362 L 750 1364 L 749 1376 L 744 1395 L 742 1411 L 739 1416 L 737 1433 Q 734 1435 735 1442 L 733 1444 L 731 1463 L 727 1474 L 727 1481 L 724 1494 L 722 1496 Q 721 1515 715 1531 L 714 1543 L 710 1553 L 707 1574 L 704 1583 L 703 1595 L 698 1610 L 698 1617 Q 695 1619 696 1626 L 694 1628 L 692 1645 L 686 1668 L 685 1679 L 682 1685 L 678 1711 L 674 1725 L 674 1730 L 669 1747 L 668 1757 L 666 1760 L 666 1767 L 657 1804 L 657 1810 L 655 1813 L 653 1822 L 654 1827 L 692 1779 Q 691 1776 694 1777 Q 696 1769 703 1765 Q 702 1761 705 1762 Q 708 1762 707 1758 L 711 1755 L 727 1734 Q 726 1731 729 1732 L 730 1729 L 740 1717 Q 739 1714 742 1715 L 748 1706 Q 747 1703 750 1704 Q 752 1696 759 1693 L 759 1691 L 762 1689 L 794 1647 Q 793 1644 796 1645 L 803 1634 L 806 1632 L 807 1629 L 810 1627 Q 813 1619 820 1614 L 820 1611 L 824 1609 L 826 1606 Q 825 1603 828 1604 L 829 1601 L 840 1588 L 841 1585 L 846 1581 L 850 1574 Q 849 1571 852 1572 L 854 1568 L 857 1566 L 865 1554 L 868 1552 L 870 1547 L 873 1545 L 898 1512 Q 897 1509 900 1510 L 911 1495 Q 910 1492 913 1493 L 954 1439 Q 950 1436 943 1437 L 941 1435 L 932 1434 L 907 1428 L 880 1418 L 877 1418 L 868 1413 L 860 1411 L 854 1407 L 838 1401 L 829 1395 L 815 1389 L 811 1385 L 796 1377 L 783 1367 L 778 1365 L 756 1347 Z M 1033 1377 L 1031 1378 L 1009 1406 Q 1010 1408 1007 1407 L 1007 1410 Q 1000 1414 997 1423 L 1003 1425 L 1048 1425 L 1051 1423 L 1062 1423 L 1063 1422 L 1070 1422 L 1070 1421 L 1067 1418 L 1064 1414 L 1060 1411 L 1060 1409 L 1052 1401 L 1051 1398 L 1048 1395 L 1045 1392 Q 1046 1389 1043 1390 L 1041 1386 L 1038 1384 L 1036 1380 L 1033 1377 Z " /><path fill="rgb(139,150,243)" stroke="rgb(139,150,243)" stroke-width="1" opacity="0.796078431372549" d="M 1012.5 197 Q 1024.2 196.3 1028 203.5 Q 1031.1 207.9 1030 216.5 L 1025.5 223 L 1018.5 227 L 1011.5 227 L 1003 220.5 L 1000 213.5 L 1000 209.5 Q 1001.8 202.3 1007.5 199 L 1012.5 197 Z " /><path fill="rgb(139,150,243)" stroke="rgb(139,150,243)" stroke-width="1" opacity="0.796078431372549" d="M 1062 204 L 1105.5 207 L 1111.5 209 L 1135.5 210 L 1136.5 211 L 1147.5 212 L 1150.5 214 L 1165.5 215 L 1180.5 218 L 1182.5 220 L 1187.5 221 L 1200.5 222 L 1207.5 225 L 1217.5 226 L 1228.5 229 L 1230.5 231 Q 1245.5 232.5 1256.5 238 L 1260.5 238 Q 1270.9 243.6 1284.5 246 L 1286.5 248 L 1293.5 249 L 1304.5 254 L 1315.5 257 L 1319.5 260 L 1327.5 262 L 1337.5 267 L 1340.5 267 L 1348.5 272 L 1362.5 277 L 1417.5 305 L 1480.5 344 L 1529 380.5 Q 1528.3 382.8 1530.5 382 L 1580 424.5 L 1581.5 427 L 1586 430.5 L 1587.5 433 L 1598 442.5 Q 1597.3 444.8 1599.5 444 L 1610.5 456 Q 1612.8 455.3 1612 457.5 L 1618 462 L 1619 466.5 L 1608.5 473 L 1600.5 476 L 1595 472.5 L 1592.5 469 L 1590 467.5 L 1576.5 452 L 1567 444.5 L 1564.5 441 L 1561 438.5 L 1559.5 436 L 1507.5 392 L 1462 359.5 Q 1462.8 356.9 1459.5 358 L 1437.5 343 L 1428.5 339 L 1425.5 336 L 1409.5 328 L 1406.5 325 L 1400.5 323 L 1395.5 319 L 1344.5 294 L 1339 293 Q 1340.1 290.3 1337.5 291 L 1304.5 277 L 1295.5 275 L 1264.5 263 L 1250.5 260 L 1234.5 254 L 1230.5 254 L 1224.5 251 L 1215.5 250 L 1207.5 247 L 1186.5 243 L 1184.5 241 L 1177.5 241 L 1156.5 236 L 1148.5 236 L 1147.5 235 L 1127.5 233 Q 1126.2 230.8 1121.5 232 L 1118.5 230 L 1105.5 230 L 1094.5 228 L 1072.5 227 L 1066 224.5 L 1062 204 Z " /><path fill="rgb(139,150,243)" stroke="rgb(139,150,243)" stroke-width="1" opacity="0.796078431372549" d="M 946.5 206 L 957.5 206 L 959 207.5 L 956 218.5 L 956 223.5 L 953.5 228 L 937.5 229 L 936.5 230 L 923.5 230 L 921.5 232 L 915.5 232 L 893.5 236 L 885.5 236 L 864.5 241 L 857.5 241 L 851.5 244 L 817.5 251 L 811.5 254 L 807.5 254 L 784.5 262 L 777.5 263 L 746.5 275 L 737.5 277 L 711.5 289 L 705.5 290 L 687.5 300 L 671.5 306 L 664.5 311 L 646.5 319 L 598.5 347 L 594.5 351 L 581.5 358 L 557.5 375 L 497 423 Q 498.1 425.7 495.5 425 L 488 431 L 485.5 435 L 470 448.5 L 467.5 452 L 464 454.5 L 461.5 458 L 459 459.5 L 456.5 463 L 453 465.5 L 444.5 475 Q 442.3 474.3 443 476.5 L 429.5 492 L 425.5 494 L 407 484.5 L 407 482.5 L 420.5 467 L 424 464.5 L 436.5 450 L 440 447.5 L 442.5 444 L 445 442.5 L 448.5 438 L 457 430.5 L 458.5 428 L 487.5 402 L 489 402 L 490.5 399 L 522.5 373 L 535 365 L 536.5 362 Q 549.9 354.9 560.5 345 L 565.5 343 L 569.5 339 L 574.5 337 L 578.5 333 L 588.5 328 L 602.5 318 L 620.5 309 L 626.5 304 L 680.5 277 L 698.5 270 L 702.5 267 L 705.5 267 L 715.5 262 L 718.5 262 L 732.5 255 L 738.5 254 L 749.5 249 L 756.5 248 L 760.5 245 Q 771.7 244.2 778.5 239 L 789.5 237 L 804.5 232 L 812.5 231 L 814.5 229 L 825.5 226 L 835.5 225 L 842.5 222 L 855.5 221 L 866.5 217 L 892.5 214 L 895.5 212 L 900.5 212 L 906.5 210 L 930.5 209 L 946.5 206 Z " /><path fill="rgb(139,150,243)" stroke="rgb(139,150,243)" stroke-width="1" opacity="0.796078431372549" d="M 1642.5 497 L 1648.5 497 L 1658 503.5 L 1660 509.5 L 1660 515.5 Q 1658.5 522 1653.5 525 L 1644.5 528 L 1637.5 526 L 1633 521.5 Q 1628.7 518.3 1630 509.5 Q 1631.8 502.3 1637.5 499 L 1642.5 497 Z " /><path fill="rgb(139,150,243)" stroke="rgb(139,150,243)" stroke-width="1" opacity="0.796078431372549" d="M 383.5 512 Q 396.1 510.4 400 517.5 L 403 524.5 L 403 529.5 L 396.5 539 Q 392.8 542.3 384.5 541 Q 378.8 539.8 376 535.5 L 373 528.5 L 373 524.5 Q 374.1 517.1 379.5 514 L 383.5 512 Z " /><path fill="rgb(139,150,243)" stroke="rgb(139,150,243)" stroke-width="1" opacity="0.796078431372549" d="M 1685.5 552 Q 1690.9 550.1 1690 553.5 L 1710 582.5 L 1725 607.5 L 1740 634.5 L 1743 642.5 L 1746 645.5 L 1746 648.5 L 1752 657.5 L 1760 677.5 L 1764 683.5 L 1765 688.5 L 1768 692.5 L 1769 698.5 Q 1775.1 705.9 1777 717.5 L 1780 721.5 Q 1781.5 733 1787 740.5 L 1788 747.5 L 1793 757.5 L 1793 761.5 L 1798 774.5 L 1799 782.5 L 1803 789.5 L 1805 801.5 L 1807 804.5 L 1810 817.5 L 1810 823.5 L 1812 825.5 L 1815 837.5 L 1816 848.5 L 1819 855.5 L 1822 878.5 L 1825 891.5 L 1826 904.5 L 1827 905.5 L 1827 912.5 L 1829 918.5 L 1829 927.5 L 1830 928.5 L 1831 947.5 L 1832 948.5 L 1832 960.5 L 1833 961.5 L 1833 978.5 L 1834 979.5 L 1834 1052.5 L 1833 1053.5 L 1833 1070.5 L 1832 1071.5 L 1832 1083.5 L 1831 1084.5 L 1829 1112.5 L 1827 1119.5 L 1826 1133.5 L 1823.5 1136 Q 1819.2 1131.8 1811.5 1131 L 1806 1126.5 L 1808 1086.5 L 1809 1085.5 L 1809 1075.5 L 1811 1072.5 L 1811 1058.5 L 1812 1057.5 L 1813 996.5 L 1812 995.5 L 1811 960.5 L 1809 955.5 L 1808 933.5 L 1807 932.5 L 1807 915.5 L 1803 900.5 L 1803 894.5 L 1801 887.5 L 1801 878.5 L 1797 866.5 L 1795 849.5 L 1790 832.5 L 1789 822.5 L 1786 817.5 L 1778 783.5 L 1775 778.5 L 1772 765.5 L 1768 757.5 L 1767 749.5 L 1764 745.5 L 1761 734.5 L 1759 732.5 L 1754 717.5 L 1739 682.5 L 1723 650.5 L 1719 645.5 L 1713 631.5 L 1703 616.5 L 1701 610.5 L 1697 606.5 L 1684 583.5 L 1679 578.5 L 1674 567.5 L 1685.5 552 Z " /><path fill="rgb(139,150,243)" stroke="rgb(139,150,243)" stroke-width="1" opacity="0.796078431372549" d="M 350.5 557 L 353 558.5 L 354.5 561 L 358 563.5 Q 357.5 567.5 360.5 568 Q 362.8 567.3 362 569.5 Q 364.6 570.9 364 575.5 L 349.5 599 Q 346.9 598.2 348 601.5 L 323 643.5 L 298 694.5 L 292 711.5 L 287 720.5 L 285 728.5 L 281 734.5 L 281 738.5 L 276 749.5 L 273 761.5 L 270 765.5 Q 269 777.5 264 785.5 L 263 793.5 L 258 805.5 L 258 809.5 L 253 825.5 L 252 835.5 L 247 850.5 L 244 871.5 L 241 879.5 L 240 897.5 L 235 922.5 L 235 936.5 L 234 937.5 L 233 958.5 L 231 961.5 L 231 974.5 L 230 975.5 L 229 1032.5 L 230 1033.5 L 231 1070.5 L 233 1073.5 L 233 1084.5 L 235 1095.5 L 235 1108.5 L 236 1109.5 L 237 1123.5 L 239 1127.5 L 242 1154.5 L 238.5 1159 L 229.5 1162 L 226.5 1165 L 222 1165 L 219 1153.5 L 219 1146.5 L 218 1145.5 L 215 1118.5 L 213 1110.5 L 213 1095.5 L 212 1094.5 L 211 1071.5 L 210 1070.5 L 210 1054.5 L 208 1051.5 L 208 980.5 L 210 977.5 L 210 961.5 L 211 960.5 L 211 948.5 L 212 947.5 L 212 936.5 L 213 935.5 L 213 921.5 L 214 920.5 L 214 913.5 L 219 885.5 L 219 878.5 L 223 864.5 L 223 859.5 L 225 854.5 L 225 848.5 L 227 843.5 L 227 838.5 L 230 825.5 L 232 821.5 L 236 803.5 L 238 800.5 L 240 788.5 L 243 782.5 L 244 774.5 L 249 764.5 L 249 760.5 L 256 738.5 L 260 731.5 L 263 720.5 L 266 716.5 L 268 707.5 L 272 701.5 L 273 695.5 L 278 687.5 L 279 682.5 L 290 661.5 L 291 656.5 L 296 646.5 L 322 599.5 L 350.5 557 Z " /><path fill="rgb(139,150,243)" stroke="rgb(139,150,243)" stroke-width="1" opacity="0.796078431372549" d="M 1804.5 1170 Q 1812.3 1170.7 1816 1175.5 Q 1821.1 1178.9 1820 1188.5 Q 1818.2 1195.7 1812.5 1199 Q 1807.8 1201.2 1799.5 1200 L 1791 1192.5 L 1790 1182.5 Q 1791.1 1174.5 1797.5 1172 L 1804.5 1170 Z " /><path fill="rgb(139,150,243)" stroke="rgb(139,150,243)" stroke-width="1" opacity="0.796078431372549" d="M 241.5 1196 Q 253.2 1195.3 257 1202.5 Q 260 1206.5 259 1214.5 Q 257.5 1221 252.5 1224 Q 248.8 1227.3 240.5 1226 L 232 1219.5 Q 228.5 1215.5 230 1206.5 L 235.5 1199 L 241.5 1196 Z " /><path fill="rgb(139,150,243)" stroke="rgb(139,150,243)" stroke-width="1" opacity="0.796078431372549" d="M 1784.5 1243 L 1800.5 1243 Q 1801.5 1243 1801 1247.5 L 1799 1249.5 L 1798 1257.5 L 1793 1270.5 L 1791 1280.5 L 1788 1284.5 L 1785 1296.5 L 1782 1300.5 L 1781 1307.5 L 1777 1314.5 L 1774 1325.5 L 1769 1333.5 L 1769 1336.5 Q 1764.8 1340.8 1764 1348.5 L 1760 1354.5 L 1752 1374.5 L 1748 1379.5 L 1739 1399.5 L 1710 1449.5 L 1704 1456.5 L 1686 1485.5 L 1663 1516.5 L 1637.5 1547 Q 1635.3 1546.3 1636 1548.5 L 1633.5 1552 L 1631 1553.5 L 1614 1574 L 1608 1578.5 L 1584.5 1603 L 1564 1621.5 Q 1564.8 1623.8 1562.5 1623 L 1558 1626.5 L 1556.5 1629 L 1549.5 1635 L 1546 1636 L 1543.5 1640 L 1487.5 1683 L 1482.5 1685 L 1471.5 1694 L 1444.5 1711 L 1435.5 1715 L 1433 1714 L 1432 1703.5 L 1430 1701.5 L 1429 1693 L 1472.5 1666 L 1527 1624.5 L 1529.5 1621 L 1538 1616 L 1541.5 1611 L 1552 1602.5 Q 1551.3 1600.3 1553.5 1601 L 1596 1559.5 Q 1630.7 1522.7 1661 1481.5 L 1689 1440.5 L 1692 1433.5 L 1696 1429.5 L 1697 1425.5 L 1707 1410.5 L 1708 1406.5 L 1713 1400.5 L 1715 1394.5 L 1733 1361.5 L 1755 1312.5 L 1756 1306.5 L 1761 1297.5 L 1764 1286.5 L 1767 1282.5 L 1768 1274.5 L 1772 1266.5 L 1773 1259.5 L 1779.5 1244 L 1784.5 1243 Z " /><path fill="rgb(139,150,243)" stroke="rgb(139,150,243)" stroke-width="1" opacity="0.796078431372549" d="M 247 1263 L 268.5 1263 L 270 1264.5 L 273 1270.5 L 276 1282.5 L 279 1287.5 L 281 1297.5 L 284 1301.5 L 287 1311.5 L 290 1315.5 L 293 1325.5 L 303 1345.5 L 304 1350.5 L 322 1386.5 L 347 1430.5 L 381 1479.5 L 382 1483 Q 384.7 1481.9 384 1484.5 L 392 1494.5 L 393 1498 L 397 1500.5 L 427.5 1539 Q 429.8 1538.3 429 1540.5 L 455.5 1569 L 460 1572.5 L 462 1575.5 L 485.5 1598 L 487 1598 Q 485.9 1600.7 488.5 1600 L 497 1607.5 L 498.5 1610 L 503 1612 L 505.5 1616 L 538.5 1643 L 571.5 1667 L 611.5 1693 Q 627.5 1700 640.5 1710 L 643 1710 L 643 1718.5 L 640 1731.5 L 638.5 1733 L 607.5 1717 L 601.5 1712 L 572.5 1695 L 535.5 1669 L 496 1637.5 L 494.5 1635 L 484 1627.5 L 481.5 1624 L 472 1617 L 470.5 1614 L 453 1598.5 L 450.5 1595 L 447 1592.5 L 445.5 1590 L 441 1586.5 L 438.5 1583 L 436 1581.5 L 403.5 1545 Q 401.3 1545.8 402 1543.5 L 389 1528.5 L 388 1525 L 385 1523.5 L 384 1520.5 L 362 1493.5 L 335 1453.5 L 310 1411.5 L 300 1390.5 L 297 1387.5 L 290 1370.5 L 285 1363.5 L 278 1344.5 L 273 1336.5 L 272 1330.5 L 268 1324.5 L 266 1315.5 L 263 1311.5 L 260 1300.5 L 256 1293.5 L 254 1283.5 L 250 1275.5 L 249 1267.5 Q 246.3 1266.4 247 1263 Z " /><path fill="rgb(139,150,243)" stroke="rgb(139,150,243)" stroke-width="1" opacity="0.796078431372549" d="M 1379.5 1717 L 1388.5 1717 L 1396 1723.5 Q 1399 1727.5 1398 1735.5 L 1390.5 1745 Q 1386.7 1747.7 1378.5 1746 L 1371 1739.5 Q 1367.7 1735.8 1369 1727.5 L 1375.5 1719 L 1379.5 1717 Z " /><path fill="rgb(139,150,243)" stroke="rgb(139,150,243)" stroke-width="1" opacity="0.796078431372549" d="M 691.5 1727 Q 700.8 1727 705 1731 L 709 1738.5 L 709 1746.5 L 702.5 1755 Q 698.8 1758.3 690.5 1757 L 681 1749.5 L 680 1737.5 L 685.5 1730 L 691.5 1727 Z " /><path fill="rgb(139,150,243)" stroke="rgb(139,150,243)" stroke-width="1" opacity="0.796078431372549" d="M 1318.5 1749 L 1324 1750 L 1329 1756.5 L 1330 1761 L 1334 1762 L 1334 1767 L 1332.5 1767 L 1317.5 1774 L 1303.5 1778 L 1272.5 1790 L 1242.5 1798 L 1236.5 1801 L 1206.5 1807 L 1191.5 1812 L 1185.5 1812 L 1165.5 1817 L 1135.5 1820 L 1127.5 1823 L 1082.5 1826 L 1078.5 1828 L 1038.5 1829 L 1037.5 1830 L 1005.5 1830 L 1004.5 1829 L 963.5 1828 L 959.5 1826 L 948.5 1826 L 937.5 1824 L 923.5 1824 L 922.5 1823 L 908.5 1822 L 906.5 1820 L 877.5 1817 L 857.5 1812 L 851.5 1812 L 844.5 1809 L 802.5 1800 L 796.5 1797 L 782.5 1794 L 777.5 1791 L 773.5 1791 L 760.5 1787 L 736 1778 L 735 1775.5 L 747.5 1760 L 752.5 1760 L 781.5 1769 L 789.5 1773 L 797.5 1774 L 803.5 1777 L 819.5 1780 L 833.5 1785 L 839.5 1785 L 849.5 1789 L 861.5 1790 L 887.5 1796 L 901.5 1797 L 904.5 1799 L 917.5 1800 L 924.5 1802 L 936.5 1802 L 937.5 1803 L 972.5 1805 L 973.5 1806 L 990.5 1806 L 991.5 1807 L 1050.5 1807 L 1051.5 1806 L 1068.5 1806 L 1069.5 1805 L 1082.5 1805 L 1083.5 1804 L 1093.5 1804 L 1094.5 1803 L 1104.5 1803 L 1105.5 1802 L 1117.5 1802 L 1118.5 1801 L 1137.5 1799 L 1141.5 1797 L 1155.5 1796 L 1166.5 1793 L 1171.5 1793 L 1175.5 1791 L 1192.5 1789 L 1199.5 1786 L 1208.5 1785 L 1220.5 1782 L 1222.5 1780 Q 1237.6 1778.6 1248.5 1773 L 1252.5 1773 L 1263.5 1768 Q 1275.1 1767.1 1282.5 1762 L 1286.5 1762 L 1295.5 1757 L 1301.5 1756 L 1318.5 1749 Z " /></svg>